<svg width="98" height="98" viewBox="0 0 98 98" fill="none" xmlns="http://www.w3.org/2000/svg">
<circle cx="49" cy="49" r="49" fill="white"/>
<path d="M28.9514 60.9999H32.9474V40.9929H28.9514V60.9999Z" fill="#368DC9"/>
<path d="M38.0635 60.9999H42.0595V53.8989H44.7325C49.0255 53.8989 52.4545 51.8469 52.4545 47.2839C52.4545 42.5589 49.0525 40.9929 44.6245 40.9929H38.0635V60.9999ZM42.0595 50.7399V44.1789H44.3275C47.0815 44.1789 48.5395 44.9619 48.5395 47.2839C48.5395 49.5789 47.2165 50.7399 44.4625 50.7399H42.0595Z" fill="#368DC9"/>
<path d="M59.7823 60.9999H64.5613L70.6633 40.9929H66.6133L64.0213 50.7399C63.4003 52.9539 62.9683 54.9519 62.3203 57.1929H62.1853C61.5643 54.9519 61.1323 52.9539 60.5113 50.7399L57.8653 40.9929H53.6803L59.7823 60.9999Z" fill="#368DC9"/>
<circle cx="49" cy="49" r="41" stroke="#368DC9" stroke-width="6" stroke-dasharray="15 15"/>
</svg>
