<svg width="50" height="50" viewBox="0 0 50 50" fill="none" xmlns="http://www.w3.org/2000/svg">
<path d="M42.3282 9.0844C39.086 7.59645 35.6649 6.5345 32.15 5.92502C32.1182 5.91966 32.0855 5.92429 32.0564 5.93828C32.0273 5.95227 32.0032 5.97493 31.9875 6.00315C31.5469 6.7844 31.0594 7.80627 30.7188 8.60627C26.9301 8.0313 23.0763 8.0313 19.2875 8.60627C18.9076 7.71508 18.4777 6.84599 18 6.00315C17.984 5.97524 17.9599 5.95284 17.9309 5.9389C17.9019 5.92495 17.8693 5.92011 17.8375 5.92502C14.3221 6.53203 10.9007 7.59407 7.65941 9.0844C7.63168 9.09498 7.60849 9.11486 7.59379 9.14065C1.11254 18.825 -0.665586 28.2719 0.20629 37.6C0.209415 37.6438 0.23754 37.6875 0.271915 37.7156C4.04608 40.5113 8.26754 42.6458 12.7563 44.0281C12.788 44.0381 12.822 44.0378 12.8535 44.0271C12.885 44.0164 12.9122 43.996 12.9313 43.9688C13.8938 42.6563 14.75 41.2719 15.4875 39.8156C15.4977 39.7958 15.5035 39.774 15.5046 39.7517C15.5056 39.7294 15.5018 39.7071 15.4936 39.6864C15.4853 39.6656 15.4726 39.6469 15.4565 39.6315C15.4404 39.6161 15.4211 39.6043 15.4 39.5969C14.0537 39.0794 12.7497 38.4578 11.5 37.7375C11.4772 37.7243 11.458 37.7057 11.4442 37.6832C11.4303 37.6608 11.4223 37.6352 11.4207 37.6089C11.4192 37.5826 11.4242 37.5563 11.4353 37.5324C11.4464 37.5085 11.4633 37.4877 11.4844 37.4719C11.7469 37.275 12.0094 37.0688 12.2594 36.8625C12.2815 36.8448 12.308 36.8333 12.3361 36.8295C12.3641 36.8256 12.3927 36.8295 12.4188 36.8406C20.6032 40.5781 29.4625 40.5781 37.5469 36.8406C37.5738 36.8286 37.6036 36.8243 37.6328 36.8281C37.6621 36.832 37.6897 36.8439 37.7125 36.8625C37.9625 37.0688 38.225 37.275 38.4875 37.4719C38.5088 37.4874 38.5259 37.508 38.5373 37.5318C38.5486 37.5555 38.5539 37.5818 38.5527 37.6081C38.5515 37.6344 38.5437 37.66 38.5302 37.6826C38.5166 37.7052 38.4977 37.724 38.475 37.7375C37.2282 38.4643 35.9225 39.0852 34.5719 39.5938C34.551 39.6018 34.532 39.6142 34.5162 39.63C34.5004 39.6459 34.4881 39.6649 34.4802 39.6859C34.4722 39.7068 34.4688 39.7292 34.47 39.7515C34.4713 39.7739 34.4773 39.7957 34.4875 39.8156C35.2375 41.2688 36.0969 42.6563 37.0407 43.9688C37.0597 43.996 37.087 44.0164 37.1184 44.0271C37.1499 44.0378 37.184 44.0381 37.2157 44.0281C41.7119 42.6501 45.9403 40.5153 49.7188 37.7156C49.7376 37.7024 49.7532 37.6851 49.7645 37.6652C49.7759 37.6452 49.7827 37.6229 49.7844 37.6C50.8282 26.8156 48.0375 17.4469 42.3907 9.14377C42.385 9.13006 42.3765 9.11769 42.3657 9.10746C42.3549 9.09723 42.3422 9.08938 42.3282 9.0844V9.0844ZM16.7094 31.9188C14.2438 31.9188 12.2157 29.6563 12.2157 26.8813C12.2157 24.1031 14.2063 21.8406 16.7094 21.8406C19.2313 21.8406 21.2407 24.1219 21.2032 26.8813C21.2032 29.6563 19.2125 31.9188 16.7094 31.9188ZM33.3219 31.9188C30.8594 31.9188 28.8282 29.6563 28.8282 26.8813C28.8282 24.1031 30.8188 21.8406 33.3219 21.8406C35.8438 21.8406 37.8563 24.1219 37.8157 26.8813C37.8157 29.6563 35.8438 31.9188 33.3219 31.9188Z" fill="white"/>
</svg>
