<svg width="477" height="289" viewBox="0 0 477 289" fill="none" xmlns="http://www.w3.org/2000/svg">
<path d="M238.623 88.8032C255.491 89.3806 271.467 96.2389 283.187 107.934C294.908 119.629 301.458 135.247 301.458 151.5C301.458 167.753 294.908 183.371 283.187 195.066C271.467 206.761 255.491 213.619 238.623 214.197C203.951 214.197 175.695 186.076 175.695 151.5C175.695 116.924 203.951 88.8032 238.623 88.8032ZM238.623 69C227.506 69.1241 216.523 71.3571 206.302 75.5714C196.081 79.7857 186.823 85.8986 179.058 93.5606C171.292 101.223 165.171 110.284 161.044 120.225C156.917 130.167 154.866 140.794 155.007 151.5C155.007 197.047 192.394 234 238.5 234C284.606 234 321.993 197.047 321.993 151.5C322.279 129.899 313.643 109.073 297.986 93.6022C282.329 78.1312 260.932 69.2818 238.5 69H238.623Z" fill="#0047BB"/>
<path d="M81.5 201.25H6.5V172.5L73.25 71.75H114.5V175H132V201.25H114.5V234H81.5V201.25ZM81.5 175V106.25L37.75 175H81.5Z" fill="#0047BB"/>
<path d="M81.5 201.25H6.5V172.5L73.25 71.75H114.5V175H132V201.25H114.5V234H81.5V201.25ZM81.5 175V106.25L37.75 175H81.5Z" fill="#0047BB"/>
<path d="M412.5 201.25H337.5V172.5L404.25 71.75H445.5V175H463V201.25H445.5V234H412.5V201.25ZM412.5 175V106.25L368.75 175H412.5Z" fill="#0047BB"/>
</svg>
