<svg id="Layer_1" data-name="Layer 1" xmlns="http://www.w3.org/2000/svg" viewBox="0 0 19 19"><defs><style>.cls-1{fill:#fff;fill-rule:evenodd;}</style></defs><path class="cls-1" d="M9.5,0A9.5,9.5,0,1,0,19,9.5,9.5,9.5,0,0,0,9.5,0ZM1,10H4.52a11.82,11.82,0,0,0,.68,3.5H2A8.42,8.42,0,0,1,1,10Zm9-5.5V1.56a10.48,10.48,0,0,1,1.35,1.49,11,11,0,0,1,.91,1.45Zm2.73,1A10.68,10.68,0,0,1,13.48,9H10V5.5ZM9,1.56V4.5H6.74a11,11,0,0,1,.91-1.45A10.48,10.48,0,0,1,9,1.56ZM9,5.5V9H5.52a10.68,10.68,0,0,1,.75-3.5ZM4.52,9H1A8.42,8.42,0,0,1,2,5.5H5.2A11.82,11.82,0,0,0,4.52,9Zm1,1H9v3.5H6.27A10.68,10.68,0,0,1,5.52,10ZM9,14.5v2.94A10.48,10.48,0,0,1,7.65,16a11,11,0,0,1-.91-1.45Zm1,2.94V14.5h2.26A11,11,0,0,1,11.35,16,10.48,10.48,0,0,1,10,17.44Zm0-3.94V10h3.48a10.68,10.68,0,0,1-.75,3.5ZM14.48,10H18a8.42,8.42,0,0,1-1,3.5H13.8A11.82,11.82,0,0,0,14.48,10Zm0-1a11.82,11.82,0,0,0-.68-3.5H17A8.42,8.42,0,0,1,18,9Zm1.88-4.5h-3a12.63,12.63,0,0,0-1.24-2A12.44,12.44,0,0,0,11,1.14,8.51,8.51,0,0,1,16.36,4.5ZM8,1.14A12.44,12.44,0,0,0,6.85,2.45,12.63,12.63,0,0,0,5.61,4.5h-3A8.51,8.51,0,0,1,8,1.14ZM2.64,14.5h3a12.63,12.63,0,0,0,1.24,2.05A12.44,12.44,0,0,0,8,17.86,8.51,8.51,0,0,1,2.64,14.5ZM11,17.86a12.44,12.44,0,0,0,1.14-1.31,12.63,12.63,0,0,0,1.24-2.05h3A8.51,8.51,0,0,1,11,17.86Z"/></svg>