<?xml version="1.0" encoding="utf-8"?>
<!-- Generator: Adobe Illustrator 24.0.1, SVG Export Plug-In . SVG Version: 6.00 Build 0)  -->
<svg version="1.1" id="레이어_1" xmlns="http://www.w3.org/2000/svg" xmlns:xlink="http://www.w3.org/1999/xlink" x="0px"
	 y="0px" viewBox="0 0 210 41.59" style="enable-background:new 0 0 210 41.59;" xml:space="preserve">
<style type="text/css">
	.st0{fill:#FFFFFF;}
</style>
<g>
	<g>
		<g>
			<path class="st0" d="M1.8,0.86h5.07v39.78H1.8V0.86z"/>
		</g>
		<g>
			<path class="st0" d="M48.86,4.47l3.77-3.32l32.91,35.89l-3.77,3.32L48.86,4.47z"/>
		</g>
		<g>
			<path class="st0" d="M52.64,40.35l-3.77-3.32L81.77,1.14l3.77,3.32L52.64,40.35z"/>
		</g>
		<g>
			<polygon class="st0" points="118.87,0.98 118.87,18.48 94.77,18.48 94.77,0.98 89.7,0.98 89.7,40.64 94.77,40.64 94.77,23.26 
				118.87,23.26 118.87,40.64 123.94,40.64 123.94,0.98 			"/>
		</g>
		<g>
			<path class="st0" d="M31.12,0.86H19.63v0h-5.07v39.78h5.07v-7.32h11.49c9.52,0,17.23-7.27,17.23-16.23
				C48.35,8.12,40.64,0.86,31.12,0.86z M31.12,28.55H19.65l0.06-22.92h11.41c6.71,0,12.16,5.14,12.16,11.46
				C43.28,23.41,37.83,28.55,31.12,28.55z"/>
		</g>
		<g>
			<path class="st0" d="M190.97,0.86h-11.49v0h-5.07v39.78h5.07v-7.32h11.49c9.52,0,17.23-7.27,17.23-16.23
				C208.2,8.12,200.48,0.86,190.97,0.86z M190.97,28.55h-11.47l0.06-22.92h11.41c6.71,0,12.16,5.14,12.16,11.46
				C203.13,23.41,197.67,28.55,190.97,28.55z"/>
		</g>
		<g>
			<g>
				<path class="st0" d="M149.3,41.59c-11.47,0-20.79-9.33-20.79-20.8S137.83,0,149.3,0s20.79,9.33,20.79,20.8
					S160.76,41.59,149.3,41.59z M149.3,4.56c-8.95,0-16.23,7.28-16.23,16.23s7.28,16.23,16.23,16.23c8.95,0,16.23-7.28,16.23-16.23
					S158.25,4.56,149.3,4.56z"/>
			</g>
		</g>
	</g>
</g>
</svg>
