<svg id="레이어_1" data-name="레이어 1" xmlns="http://www.w3.org/2000/svg" viewBox="0 0 69.86 16.63"><title>fgfggf</title><path d="M10.71,25a5.68,5.68,0,0,0,0,11.35,5.68,5.68,0,0,0,0-11.35Zm0,9.79a4.12,4.12,0,0,1,0-8.24,4.12,4.12,0,0,1,0,8.24Z" transform="translate(-5.21 -24.16)"/><path d="M28.62,25a5.68,5.68,0,1,0,5.5,5.67A5.59,5.59,0,0,0,28.62,25Zm0,9.79a4.12,4.12,0,1,1,3.94-4.12A4,4,0,0,1,28.62,34.77Z" transform="translate(-5.21 -24.16)"/><path d="M63.55,28.91a8.41,8.41,0,0,0,5.69,3.51l.22-1.54a6.91,6.91,0,0,1-5.12-3.66,9,9,0,0,0,.47-2.86H63.25a7.08,7.08,0,0,1-5.44,7l.72,1.43A8.44,8.44,0,0,0,63.55,28.91Z" transform="translate(-5.21 -24.16)"/><polygon points="14.36 0 12.74 0 12.74 16.63 14.36 16.63 14.36 7.53 16.99 7.53 16.99 5.91 14.36 5.91 14.36 0"/><rect x="31.39" width="1.61" height="16.63"/><path d="M41.34,26.43h1.78v9.78H41.34v1.61h10.5V36.21H50.21V26.43h1.63V24.82H41.34Zm3.39,0H48.6v9.78H44.73Z" transform="translate(-5.21 -24.16)"/><polygon points="67.5 5.09 67.5 3.38 69.82 3.38 69.82 1.77 67.5 1.77 67.5 0 65.89 0 65.89 8.81 67.5 8.81 67.5 6.71 69.86 6.71 69.86 5.09 67.5 5.09"/><rect x="48.74" width="1.61" height="16.63"/><path d="M71.1,35.69h-9v-2.1H60.51v7.17h12.2V33.59H71.1Zm0,3.46h-9V37.31h9Z" transform="translate(-5.21 -24.16)"/></svg>