<svg width="90" height="19" viewBox="0 0 90 19" fill="none" xmlns="http://www.w3.org/2000/svg">
<path d="M0 0.379883H2.21V17.7299H0V0.379883Z" fill="#1E1E1E"/>
<path d="M20.52 1.95L22.16 0.5L36.51 16.15L34.87 17.6L20.52 1.95Z" fill="#1E1E1E"/>
<path d="M22.17 17.6L20.53 16.15L34.88 0.5L36.52 1.95L22.17 17.6Z" fill="#1E1E1E"/>
<path d="M51.0501 0.430176V8.06018H40.5401V0.430176H38.3301V17.7202H40.5401V10.1402H51.0501V17.7202H53.2601V0.430176H51.0501Z" fill="#1E1E1E"/>
<path d="M12.7801 0.379883H7.77006H5.56006V17.7299H7.77006V14.5399H12.7801C16.9301 14.5399 20.2901 11.3699 20.2901 7.45988C20.3001 3.53988 16.9301 0.379883 12.7801 0.379883ZM12.7801 12.4499H7.78006L7.81006 2.45988H12.7901C15.7101 2.45988 18.0901 4.69988 18.0901 7.45988C18.0901 10.2099 15.7101 12.4499 12.7801 12.4499Z" fill="#1E1E1E"/>
<path d="M82.49 0.379883H77.48H75.27V17.7299H77.48V14.5399H82.49C86.64 14.5399 90 11.3699 90 7.45988C90 3.53988 86.64 0.379883 82.49 0.379883ZM82.49 12.4499H77.49L77.52 2.45988H82.5C85.42 2.45988 87.8 4.69988 87.8 7.45988C87.79 10.2099 85.41 12.4499 82.49 12.4499Z" fill="#1E1E1E"/>
<path d="M64.32 18.14C59.32 18.14 55.25 14.07 55.25 9.07C55.25 4.07 59.32 0 64.32 0C69.32 0 73.39 4.07 73.39 9.07C73.39 14.07 69.32 18.14 64.32 18.14ZM64.32 1.99C60.42 1.99 57.24 5.17 57.24 9.07C57.24 12.97 60.42 16.15 64.32 16.15C68.22 16.15 71.4 12.97 71.4 9.07C71.4 5.17 68.22 1.99 64.32 1.99Z" fill="#1E1E1E"/>
</svg>
