<svg width="106" height="21" viewBox="0 0 106 21" fill="none" xmlns="http://www.w3.org/2000/svg">
<g clip-path="url(#clip0)">
<path d="M32.9557 10.4799L24.8435 18.6986L26.5037 20.3756L34.6159 12.1619L42.7231 20.3756L44.3833 18.6986L36.2711 10.4799L34.6159 8.79785L32.9557 10.4799Z" fill="#FDFEFF"/>
<path d="M36.2711 10.5452L44.3833 2.32655L42.7231 0.644531L34.6159 8.86324L26.5037 0.644531L24.8435 2.32655L32.9557 10.5452L34.6159 12.2222L36.2711 10.5452Z" fill="#FDFEFF"/>
<path d="M0 0.0209961H2.48535V21.0009H0V0.0209961Z" fill="#FDFEFF"/>
<path d="M46.973 0.382812H49.4584V20.6425H46.973V0.382812Z" fill="#FDFEFF"/>
<path d="M62.8991 9.25098V11.769H47.0625V9.25098H62.8991Z" fill="#FDFEFF"/>
<path d="M61.2787 0.382812H63.764V20.6425H61.2787V0.382812Z" fill="#FDFEFF"/>
<path d="M6.5166 0.0200195H9.00195V20.9999H6.5166V0.0200195Z" fill="#FDFEFF"/>
<path d="M15.0314 2.538C16.6134 2.538 18.1306 3.17469 19.2492 4.30801C20.3678 5.44132 20.9962 6.97842 20.9962 8.58117C20.9962 10.1839 20.3678 11.721 19.2492 12.8543C18.1306 13.9876 16.6134 14.6243 15.0314 14.6243H9.0119L9.04173 2.538H15.0314ZM15.0314 0.0200195H6.58124L6.5365 17.1423H15.0314C17.2725 17.1423 19.4219 16.2403 21.0066 14.6348C22.5913 13.0293 23.4816 10.8517 23.4816 8.58117C23.4816 6.31061 22.5913 4.13305 21.0066 2.52752C19.4219 0.921996 17.2725 0.0200195 15.0314 0.0200195Z" fill="#FDFEFF"/>
<path d="M89.035 0.0200195H91.5204V20.9999H89.035V0.0200195Z" fill="#FDFEFF"/>
<path d="M97.5498 2.538C99.1318 2.538 100.649 3.17469 101.768 4.30801C102.886 5.44132 103.515 6.97842 103.515 8.58117C103.515 10.1839 102.886 11.721 101.768 12.8543C100.649 13.9876 99.1318 14.6243 97.5498 14.6243H91.5303L91.5601 2.538H97.5249H97.5498ZM97.5249 0.0200195H89.0748L89.03 17.1423H97.5399C99.781 17.1423 101.93 16.2403 103.515 14.6348C105.1 13.0293 105.99 10.8517 105.99 8.58117C105.99 6.31061 105.1 4.13305 103.515 2.52752C101.93 0.921996 99.781 0.0200195 97.5399 0.0200195H97.5249Z" fill="#FDFEFF"/>
<path d="M76.4294 2.51799C78.4678 2.59141 80.3986 3.46345 81.8151 4.95046C83.2316 6.43746 84.0232 8.42337 84.0232 10.4899C84.0232 12.5565 83.2316 14.5424 81.8151 16.0294C80.3986 17.5164 78.4678 18.3884 76.4294 18.4619C72.2391 18.4619 68.8242 14.8863 68.8242 10.4899C68.8242 6.09353 72.2391 2.51799 76.4294 2.51799ZM76.4294 0C75.0858 0.0157735 73.7584 0.299704 72.5232 0.835554C71.288 1.3714 70.1691 2.14867 69.2306 3.1229C68.2921 4.09713 67.5523 5.24923 67.0535 6.51332C66.5548 7.77741 66.3069 9.1287 66.3239 10.4899C66.3239 16.2813 70.8423 20.9799 76.4144 20.9799C81.9866 20.9799 86.5049 16.2813 86.5049 10.4899C86.5394 7.74335 85.4958 5.09533 83.6036 3.12819C81.7113 1.16104 79.1254 0.0358319 76.4144 0H76.4294Z" fill="#FDFEFF"/>
</g>
<defs>
<clipPath id="clip0">
<rect width="106" height="21" fill="white"/>
</clipPath>
</defs>
</svg>
