<svg width="232" height="42" viewBox="0 0 232 42" fill="none" xmlns="http://www.w3.org/2000/svg">
<g clip-path="url(#clip0)">
<path d="M0 0.684937H6.99186V41.4519H0V0.684937Z" fill="#0E101B"/>
<path d="M92.5027 0L97.4969 4.84389L59.5411 42.0294L54.5469 37.1365L92.5027 0Z" fill="#0E101B"/>
<path d="M104.678 1.37976H111.67V40.7474H104.678V1.37976Z" fill="#0E101B"/>
<path d="M137.679 17.6436V24.4935H105.856V17.6436H137.679Z" fill="#0E101B"/>
<path d="M135.832 1.37976H142.824V40.7474H135.832V1.37976Z" fill="#0E101B"/>
<path d="M17.1504 0.684937H24.1423V41.4519H17.1504V0.684937Z" fill="#0E101B"/>
<path d="M34.1306 7.53489C36.7797 7.53489 39.3203 8.56588 41.1935 10.401C43.0667 12.2362 44.119 14.7252 44.119 17.3205C44.119 19.9159 43.0667 22.4049 41.1935 24.24C39.3203 26.0752 36.7797 27.1062 34.1306 27.1062H24.1423V7.53489H34.1306ZM34.1306 0.684937H17.1504V33.9561H34.1306C38.6341 33.9561 42.9531 32.2035 46.1375 29.0837C49.3219 25.9639 51.1109 21.7326 51.1109 17.3205C51.1109 12.9085 49.3219 8.67717 46.1375 5.55739C42.9531 2.43761 38.6341 0.684937 34.1306 0.684937Z" fill="#0E101B"/>
<path d="M198.039 0.684937H205.031V41.4519H198.039V0.684937Z" fill="#0E101B"/>
<path d="M215.019 7.53489C217.668 7.53489 220.209 8.56588 222.082 10.401C223.955 12.2362 225.008 14.7252 225.008 17.3205C225.008 19.9159 223.955 22.4049 222.082 24.24C220.209 26.0752 217.668 27.1062 215.019 27.1062H205.031V7.53489H215.019ZM215.019 0.684937H198.039V33.9561H215.019C219.523 33.9561 223.842 32.2035 227.026 29.0837C230.211 25.9639 232 21.7326 232 17.3205C232 12.9085 230.211 8.67717 227.026 5.55739C223.842 2.43761 219.523 0.684937 215.019 0.684937Z" fill="#0E101B"/>
<path d="M170.412 7.48606C177.744 7.48606 183.697 13.563 183.697 21.0294C183.761 24.5483 182.399 27.9486 179.909 30.4854C177.419 33.0221 174.004 34.4884 170.412 34.5629C163.091 34.5629 157.128 28.4861 157.128 21.0294C157.128 13.5727 163.121 7.48606 170.412 7.48606ZM170.412 0.636108C159.215 0.636108 150.136 9.76613 150.136 21.0294C150.136 32.2927 159.215 41.4129 170.412 41.4129C181.609 41.4129 190.689 32.2829 190.689 21.0294C190.689 9.77591 181.609 0.636108 170.412 0.636108V0.636108Z" fill="#0E101B"/>
<path d="M97.4969 37.1466L92.5027 42.0394L54.5469 4.85392L59.5411 0.0100098L97.4969 37.1466Z" fill="#0E101B"/>
</g>
<defs>
<clipPath id="clip0">
<rect width="232" height="42" fill="white"/>
</clipPath>
</defs>
</svg>
