<svg width="106" height="21" viewBox="0 0 106 21" fill="none" xmlns="http://www.w3.org/2000/svg">
<path d="M32.959 10.4799L24.8461 18.6986L26.5064 20.3756L34.6193 12.1619L42.7273 20.3756L44.3876 18.6986L36.2747 10.4799L34.6193 8.79785L32.959 10.4799Z" fill="#0E101B"/>
<path d="M36.2747 10.5452L44.3876 2.32655L42.7273 0.644531L34.6193 8.86324L26.5064 0.644531L24.8461 2.32655L32.959 10.5452L34.6193 12.2222L36.2747 10.5452Z" fill="#0E101B"/>
<path d="M0 0.0209961H2.48535V21.0009H0V0.0209961Z" fill="#0E101B"/>
<path d="M46.9774 0.382812H49.4628V20.6425H46.9774V0.382812Z" fill="#0E101B"/>
<path d="M62.9048 9.25098V11.769H47.0668V9.25098H62.9048Z" fill="#0E101B"/>
<path d="M61.2844 0.382812H63.7698V20.6425H61.2844V0.382812Z" fill="#0E101B"/>
<path d="M6.5166 0.0200195H9.00195V20.9999H6.5166V0.0200195Z" fill="#0E101B"/>
<path d="M15.0323 2.538C16.6144 2.538 18.1317 3.17469 19.2505 4.30801C20.3692 5.44132 20.9977 6.97842 20.9977 8.58117C20.9977 10.1839 20.3692 11.721 19.2505 12.8543C18.1317 13.9876 16.6144 14.6243 15.0323 14.6243H9.01225L9.04208 2.538H15.0323ZM15.0323 0.0200195H6.58136L6.53662 17.1423H15.0323C17.2736 17.1423 19.4232 16.2403 21.008 14.6348C22.5929 13.0293 23.4833 10.8517 23.4833 8.58117C23.4833 6.31061 22.5929 4.13305 21.008 2.52752C19.4232 0.921996 17.2736 0.0200195 15.0323 0.0200195Z" fill="#0E101B"/>
<path d="M89.0433 0.0200195H91.5287V20.9999H89.0433V0.0200195Z" fill="#0E101B"/>
<path d="M97.559 2.538C99.1411 2.538 100.658 3.17469 101.777 4.30801C102.896 5.44132 103.524 6.97842 103.524 8.58117C103.524 10.1839 102.896 11.721 101.777 12.8543C100.658 13.9876 99.1411 14.6243 97.559 14.6243H91.5389L91.5688 2.538H97.5341H97.559ZM97.5341 0.0200195H89.0832L89.0385 17.1423H97.5491C99.7904 17.1423 101.94 16.2403 103.525 14.6348C105.11 13.0293 106 10.8517 106 8.58117C106 6.31061 105.11 4.13305 103.525 2.52752C101.94 0.921996 99.7904 0.0200195 97.5491 0.0200195H97.5341Z" fill="#0E101B"/>
<path d="M76.4365 2.51799C78.4752 2.59141 80.4061 3.46345 81.8228 4.95046C83.2394 6.43746 84.031 8.42337 84.031 10.4899C84.031 12.5565 83.2394 14.5424 81.8228 16.0294C80.4061 17.5164 78.4752 18.3884 76.4365 18.4619C72.2458 18.4619 68.8307 14.8863 68.8307 10.4899C68.8307 6.09353 72.2458 2.51799 76.4365 2.51799ZM76.4365 0C75.0928 0.0157735 73.7653 0.299704 72.53 0.835554C71.2946 1.3714 70.1757 2.14867 69.2371 3.1229C68.2985 4.09713 67.5586 5.24923 67.0598 6.51332C66.561 7.77741 66.3131 9.1287 66.3302 10.4899C66.3302 16.2813 70.8489 20.9799 76.4216 20.9799C81.9942 20.9799 86.513 16.2813 86.513 10.4899C86.5475 7.74335 85.5038 5.09533 83.6114 3.12819C81.719 1.16104 79.1328 0.0358319 76.4216 0H76.4365Z" fill="#0E101B"/>
</svg>
