<svg width="40" height="40" viewBox="0 0 40 40" fill="none" xmlns="http://www.w3.org/2000/svg">
<circle cx="20" cy="20" r="20" fill="black"/>
<g clip-path="url(#clip0)">
<path d="M17.3149 23.3195L24.3403 19.7367L17.3149 16.1289V23.3195Z" fill="black"/>
<path opacity="0.12" fill-rule="evenodd" clip-rule="evenodd" d="M17.3149 16.1289L23.4758 20.1797L24.3403 19.738L17.3149 16.1289Z" fill="black"/>
<path d="M32.7394 14.8821C32.7394 14.8821 32.4853 13.1185 31.7057 12.3418C30.718 11.3226 29.6088 11.3174 29.1005 11.2578C25.4622 10.9985 20.0046 10.9985 20.0046 10.9985H19.9931C19.9931 10.9985 14.5355 10.9985 10.8972 11.2578C10.3889 11.3174 9.28106 11.3226 8.29207 12.3418C7.51246 13.1195 7.25895 14.8821 7.25895 14.8821C7.25895 14.8821 6.99854 16.9532 6.99854 19.0239V20.9657C6.99854 23.0365 7.25862 25.1075 7.25862 25.1075C7.25862 25.1075 7.51213 26.8711 8.29174 27.6478C9.27942 28.667 10.5799 28.6349 11.1586 28.7419C13.2387 28.9363 19.9987 28.9989 19.9987 28.9989C19.9987 28.9989 25.4619 28.9908 29.1002 28.7318C29.6085 28.6722 30.7167 28.667 31.7053 27.6478C32.4849 26.8701 32.7391 25.1075 32.7391 25.1075C32.7391 25.1075 32.9985 23.0365 32.9985 20.9657V19.0239C32.9989 16.9532 32.7394 14.8821 32.7394 14.8821ZM17.3145 23.3184V16.1278L24.3389 19.7356L17.3145 23.3184Z" fill="white"/>
</g>
<defs>
<clipPath id="clip0">
<rect width="26" height="18" fill="white" transform="translate(7 11)"/>
</clipPath>
</defs>
</svg>
