<svg width="40" height="40" viewBox="0 0 40 40" fill="none" xmlns="http://www.w3.org/2000/svg">
<circle cx="20" cy="20" r="20" fill="black"/>
<path d="M20 10.9817C22.9373 10.9817 23.2854 10.9929 24.4447 11.0462C25.5172 11.0952 26.0998 11.2739 26.4874 11.4252C26.9652 11.6013 27.3975 11.8824 27.7524 12.2476C28.1176 12.6025 28.3987 13.0348 28.5748 13.5126C28.7261 13.9002 28.9048 14.4828 28.9538 15.5553C29.0071 16.7146 29.0183 17.0627 29.0183 20C29.0183 22.9373 29.0071 23.2854 28.9538 24.4447C28.9048 25.5172 28.7261 26.0998 28.5748 26.4874C28.3921 26.9619 28.1119 27.3929 27.7524 27.7524C27.3929 28.1119 26.9619 28.3921 26.4874 28.5748C26.0998 28.7261 25.5172 28.9048 24.4447 28.9538C23.2854 29.0071 22.9373 29.0183 20 29.0183C17.0627 29.0183 16.7146 29.0071 15.5553 28.9538C14.4828 28.9048 13.9002 28.7261 13.5126 28.5748C13.0347 28.3989 12.6024 28.1178 12.2476 27.7524C11.8822 27.3976 11.6011 26.9653 11.4252 26.4874C11.2739 26.0998 11.0952 25.5172 11.0462 24.4447C10.9929 23.2854 10.9817 22.9373 10.9817 20C10.9817 17.0627 10.9929 16.7146 11.0462 15.5553C11.0952 14.4828 11.2739 13.8984 11.4252 13.5126C11.6013 13.0348 11.8824 12.6025 12.2476 12.2476C12.6024 11.8822 13.0347 11.6011 13.5126 11.4252C13.8984 11.2739 14.4828 11.0952 15.5553 11.0462C16.7146 10.9929 17.0627 10.9817 20 10.9817ZM20 9C17.0128 9 16.6381 9.01289 15.4651 9.06617C14.292 9.11945 13.4945 9.30594 12.7941 9.5775C12.0604 9.85396 11.3956 10.2868 10.8459 10.8459C10.2866 11.3958 9.85373 12.0609 9.5775 12.795C9.30594 13.4945 9.11945 14.2938 9.06617 15.4651C9.01289 16.6364 9 17.0128 9 20C9 22.9872 9.01289 23.3619 9.06617 24.5349C9.11945 25.708 9.30594 26.5055 9.5775 27.2059C9.85396 27.9396 10.2868 28.6044 10.8459 29.1541C11.3956 29.7132 12.0604 30.146 12.7941 30.4225C13.4945 30.6941 14.2938 30.8805 15.4651 30.9338C16.6364 30.9871 17.012 31 20 31C22.988 31 23.3619 30.9871 24.5349 30.9338C25.708 30.8805 26.5055 30.6941 27.205 30.4225C27.9359 30.1402 28.5997 29.7082 29.1538 29.1543C29.7079 28.6004 30.14 27.9367 30.4225 27.2059C30.6941 26.5055 30.8805 25.7063 30.9338 24.5349C30.9871 23.3636 31 22.988 31 20C31 17.012 30.9871 16.6381 30.9338 15.4651C30.8805 14.292 30.6941 13.4945 30.4225 12.795C30.1463 12.0609 29.7134 11.3958 29.1541 10.8459C28.6042 10.2866 27.9391 9.85373 27.205 9.5775C26.5055 9.30594 25.7063 9.11945 24.5349 9.06617C23.3636 9.01289 22.9872 9 20 9ZM20 14.3513C18.8828 14.3513 17.7907 14.6826 16.8618 15.3033C15.9328 15.924 15.2088 16.8062 14.7813 17.8383C14.3538 18.8705 14.2419 20.0063 14.4599 21.102C14.6778 22.1977 15.2158 23.2042 16.0058 23.9942C16.7958 24.7842 17.8023 25.3222 18.898 25.5401C19.9937 25.7581 21.1295 25.6462 22.1617 25.2187C23.1938 24.7912 24.076 24.0672 24.6967 23.1382C25.3174 22.2093 25.6487 21.1172 25.6487 20C25.6487 18.5019 25.0535 17.0651 23.9942 16.0058C22.9349 14.9465 21.4981 14.3513 20 14.3513V14.3513ZM20 23.667C19.2747 23.667 18.5658 23.4519 17.9627 23.049C17.3597 22.646 16.8897 22.0733 16.6122 21.4033C16.3346 20.7332 16.262 19.9959 16.4035 19.2846C16.545 18.5733 16.8942 17.9199 17.4071 17.4071C17.9199 16.8942 18.5733 16.545 19.2846 16.4035C19.9959 16.262 20.7332 16.3346 21.4033 16.6122C22.0733 16.8897 22.646 17.3597 23.049 17.9627C23.4519 18.5658 23.667 19.2747 23.667 20C23.6667 20.9725 23.2803 21.905 22.5927 22.5927C21.905 23.2803 20.9725 23.6667 20 23.667V23.667ZM27.1921 14.1279C27.1921 14.389 27.1147 14.6442 26.9696 14.8612C26.8246 15.0783 26.6185 15.2475 26.3773 15.3474C26.1361 15.4473 25.8706 15.4735 25.6146 15.4225C25.3585 15.3716 25.1233 15.2459 24.9387 15.0613C24.7541 14.8767 24.6284 14.6415 24.5775 14.3854C24.5265 14.1294 24.5527 13.8639 24.6526 13.6227C24.7525 13.3815 24.9217 13.1754 25.1388 13.0304C25.3558 12.8853 25.611 12.8079 25.8721 12.8079C26.0455 12.8079 26.2171 12.842 26.3773 12.9084C26.5374 12.9747 26.6829 13.0719 26.8055 13.1945C26.9281 13.3171 27.0253 13.4626 27.0916 13.6227C27.158 13.7829 27.1921 13.9545 27.1921 14.1279V14.1279Z" fill="white"/>
</svg>
