<svg xmlns="http://www.w3.org/2000/svg" xmlns:xlink="http://www.w3.org/1999/xlink" width="195.60141mm" height="168.72858mm" viewBox="0 0 195.60141 168.72858" version="1.1" id="svg8">

  <g id="layer1" transform="translate(-175.95456,22.202848)">
    <path id="rect1273" style="fill:#000000;fill-opacity:1;stroke:none;stroke-width:3.39024" d="M 299.50977,98.994141 V 142.43164 H 438.64062 L 293.95508,417.69727 c 0,15.82617 0,27.65234 0,43.47851 h 261.73047 l 10,-43.47851 H 341.78125 L 487.9043,142.43164 V 98.994141 Z" transform="matrix(0.26458333,0,0,0.26458333,175.95456,-22.202848)"></path>
    <path id="rect1260" style="fill:#000000;fill-opacity:1;stroke:none;stroke-width:3.39024" d="M 125.08984 -12.142578 C 123.06121 -12.142578 121.42773 -10.509106 121.42773 -8.4804688 L 121.42773 362.76758 C 121.42773 364.00089 123.89363 383.39933 128.0957 393.57227 C 132.61978 404.52476 140.59481 418.33411 152.38086 429.58398 C 164.16691 440.83386 179.76279 449.52387 193.81055 454.88086 C 207.8583 460.23785 220.35733 462.26272 231.60742 463.45312 C 241.81051 464.53277 251.0823 464.91659 260.35742 465.06836 L 260.35742 421.35547 C 249.89309 421.69281 238.43193 421.66432 227.56055 420 C 215.12006 418.09546 203.45438 414.04738 194.64453 407.61914 C 185.83469 401.1909 179.8815 392.3831 176.48828 385.12109 C 173.09506 377.85909 172.26245 372.14481 171.8457 369.28711 C 171.45305 366.5946 171.42773 363.41735 171.42773 362.76758 L 171.42773 143.57227 L 256.42773 143.57227 L 256.42773 102.14258 L 171.42773 102.14258 L 171.42773 -8.4804688 C 171.42773 -10.509106 169.79622 -12.142578 167.76758 -12.142578 L 125.08984 -12.142578 z " transform="matrix(0.26458333,0,0,0.26458333,175.95456,-22.202848)"></path>
    <path style="fill:#000000;stroke:none;stroke-width:0.251903px;stroke-linecap:butt;stroke-linejoin:miter;stroke-opacity:1" d="m 187.75394,10.681965 -20.2695,18.193721 5.87962,72.519604 h 14.38988 z" id="path1258"></path>
    <path style="fill:#eb1b9f;fill-opacity:1;stroke:none;stroke-width:0.251903px;stroke-linecap:butt;stroke-linejoin:miter;stroke-opacity:1" d="m 187.75394,-29.195186 -24.83941,1.700671 3.21618,39.669929 21.62323,-19.4928658 z" id="path1251"></path>
    <path id="path1281" style="fill:#000000;stroke:none;stroke-width:0.999999px;stroke-linecap:butt;stroke-linejoin:miter;stroke-opacity:1" d="m 512.57227,100 94.57031,307.14258 -71.42774,280 L 577.14258,680 738.57227,100 H 694.25 L 632.57227,330.57227 556.00977,100 Z" transform="matrix(0.26458333,0,0,0.26458333,175.95456,-22.202848)"></path>
  </g>
</svg>