<svg width="141" height="142" viewBox="0 0 141 142" fill="none" xmlns="http://www.w3.org/2000/svg">
<path d="M139.5 71C139.5 109.394 108.598 140.5 70.5 140.5C32.4023 140.5 1.5 109.394 1.5 71C1.5 32.6062 32.4023 1.5 70.5 1.5C108.598 1.5 139.5 32.6062 139.5 71Z" fill="white" stroke="#071773" stroke-width="3"/>
<g clip-path="url(#clip0)">
<path d="M66.5383 102.016H72.0421C76.4264 102.016 79.9872 105.094 79.9872 108.871V109.144C79.9872 112.928 76.4264 115.999 72.0421 115.999H66.5383C62.1541 115.999 58.5933 112.928 58.5933 109.144V108.871C58.5933 105.094 62.1324 102.016 66.5383 102.016ZM75.4368 108.871C75.4368 107.259 73.9128 105.943 72.0421 105.943H66.5383C64.6676 105.943 63.1436 107.259 63.1436 108.871V109.144C63.1436 110.762 64.6676 112.072 66.5383 112.072H72.0421C73.9128 112.072 75.4368 110.762 75.4368 109.144V108.871Z" fill="#071773"/>
<path d="M66.3964 110.046L66.5438 109.648C66.8888 108.716 66.41 107.682 65.4743 107.339L49.8944 101.618C48.9588 101.274 47.9206 101.751 47.5756 102.683L47.4281 103.081C47.0831 104.013 47.562 105.047 48.4976 105.39L64.0775 111.111C65.0132 111.455 66.0514 110.978 66.3964 110.046Z" fill="#071773"/>
<path d="M48.7341 94.4843L53.1834 97.7068C56.7298 100.267 57.806 104.842 55.5741 107.899L55.408 108.122C53.1834 111.179 48.4813 111.582 44.9349 109.014L40.4857 105.792C36.9393 103.224 35.8631 98.6562 38.095 95.5992L38.2611 95.3762C40.4857 92.3191 45.1877 91.9163 48.7341 94.4843ZM51.8905 105.274C52.8439 103.965 52.3817 102.015 50.8721 100.915L46.4156 97.6924C44.8988 96.599 42.8981 96.7717 41.9447 98.0736L41.7786 98.2966C40.8252 99.6057 41.2874 101.555 42.797 102.656L47.2535 105.878C48.763 106.971 50.771 106.799 51.7244 105.497L51.8905 105.274Z" fill="#071773"/>
<path d="M43.901 100.907L44.2553 100.671C45.0844 100.119 45.3072 99.0025 44.753 98.1768L35.5252 84.4285C34.971 83.6028 33.8497 83.3809 33.0206 83.9328L32.6663 84.1686C31.8372 84.7205 31.6143 85.8373 32.1685 86.663L41.3963 100.411C41.9505 101.237 43.0719 101.459 43.901 100.907Z" fill="#071773"/>
<path d="M38.7956 77.9788L40.4929 83.1938C41.8508 87.3442 40.0162 91.6745 36.4048 92.8397L36.1448 92.9261C32.5334 94.0913 28.4958 91.6673 27.1452 87.5168L25.4478 82.3019C24.0899 78.1514 25.9245 73.8212 29.5287 72.6559L29.7959 72.5696C33.4001 71.4043 37.4377 73.8284 38.7956 77.9788ZM35.0036 88.5239C36.542 88.0276 37.3221 86.1789 36.7443 84.4094L35.0469 79.1944C34.4691 77.4177 32.7428 76.3819 31.2044 76.8855L30.9371 76.9646C29.3987 77.4681 28.6114 79.3167 29.1964 81.0862L30.8938 86.3012C31.4716 88.0707 33.1979 89.1137 34.7363 88.6102L35.0036 88.5239Z" fill="#071773"/>
<path d="M31.0949 80.3389L31.5207 80.3555C32.5172 80.3943 33.3566 79.6213 33.3956 78.6289L34.0446 62.1046C34.0836 61.1122 33.3074 60.2762 32.3109 60.2374L31.885 60.2208C30.8885 60.182 30.0491 60.955 30.0102 61.9474L29.3611 78.4717C29.3221 79.4641 30.0984 80.3001 31.0949 80.3389Z" fill="#071773"/>
<path d="M40.4929 58.8096L38.7956 64.0246C37.4377 68.175 33.4001 70.5991 29.796 69.4338L29.5287 69.3475C25.9173 68.1822 24.0899 63.852 25.4406 59.7016L27.1452 54.4938C28.4958 50.3362 32.5334 47.9121 36.1448 49.0774L36.4048 49.1637C40.0162 50.329 41.8508 54.6592 40.4929 58.8096ZM31.2044 65.118C32.7429 65.6215 34.4691 64.5857 35.0469 62.809L36.7443 57.594C37.3221 55.8245 36.542 53.9974 35.0036 53.4795L34.758 53.3716C33.2196 52.8681 31.4933 53.9111 30.9155 55.6806L29.2181 60.8956C28.6331 62.6651 29.4204 64.4922 30.9588 65.0173L31.2044 65.118Z" fill="#071773"/>
<path d="M32.8731 56.2102L33.2078 56.4729C33.9911 57.0876 35.1264 56.9536 35.7437 56.1735L46.0216 43.185C46.6389 42.405 46.5043 41.2743 45.721 40.6596L45.3863 40.3969C44.603 39.7821 43.4677 39.9162 42.8504 40.6962L32.5725 53.6847C31.9552 54.4648 32.0898 55.5955 32.8731 56.2102Z" fill="#071773"/>
<path d="M53.1834 44.2934L48.7341 47.5159C45.1877 50.0838 40.4857 49.6738 38.2611 46.6239L38.095 46.4009C35.8631 43.3439 36.9393 38.7762 40.4857 36.2083L44.9349 32.9858C48.4813 30.4179 53.1834 30.8279 55.408 33.8777L55.5741 34.1007C57.806 37.1578 56.7298 41.7326 53.1834 44.2934ZM41.9808 43.9625C42.9342 45.2644 44.9349 45.437 46.4517 44.3437L50.8721 41.1428C52.3817 40.0422 52.8439 38.0929 51.8905 36.7838L51.7244 36.5608C50.771 35.2588 48.763 35.1222 47.2535 36.1795L42.797 39.402C41.2874 40.5026 40.8252 42.4519 41.7786 43.7611L41.9808 43.9625Z" fill="#071773"/>
<path d="M48.5509 37.7281L48.6666 38.1365C48.9375 39.0923 49.9351 39.6485 50.8949 39.3788L66.8759 34.8872C67.8356 34.6174 68.3941 33.6239 68.1232 32.6681L68.0075 32.2597C67.7366 31.3038 66.739 30.7477 65.7792 31.0174L49.7982 35.509C48.8385 35.7787 48.28 36.7723 48.5509 37.7281Z" fill="#071773"/>
<path d="M72.0205 39.9826H66.5383C62.1541 39.9826 58.5933 36.9039 58.5933 33.1275V32.8542C58.5933 29.0706 62.1324 26.0352 66.5383 26.0352H72.0421C76.4264 26.0352 79.9872 29.1066 79.9872 32.8902V33.1635C79.9655 36.9039 76.4047 39.9826 72.0205 39.9826ZM63.122 33.1275C63.122 34.7388 64.646 36.0551 66.5167 36.0551H72.0205C73.8912 36.0551 75.4152 34.7388 75.4152 33.1275V32.8542C75.4152 31.2358 73.8912 29.9266 72.0205 29.9266H66.5383C64.6676 29.9266 63.1436 31.2358 63.1436 32.8542L63.122 33.1275Z" fill="#071773"/>
<path d="M72.1398 31.9497L71.9924 32.3479C71.6474 33.2798 72.1262 34.3137 73.0619 34.6573L88.6418 40.3783C89.5774 40.7219 90.6156 40.245 90.9606 39.3132L91.1081 38.915C91.4531 37.9831 90.9742 36.9492 90.0386 36.6056L74.4587 30.8846C73.523 30.541 72.4848 31.0179 72.1398 31.9497Z" fill="#071773"/>
<path d="M89.803 47.5143L85.3176 44.2918C81.7784 41.7311 80.7022 37.1563 82.9341 34.0992L83.1002 33.8762C85.3248 30.8191 90.0269 30.4163 93.5733 32.9843L98.0225 36.2068C101.569 38.7747 102.638 43.3423 100.413 46.3994L100.247 46.6224C98.0442 49.6794 93.3494 50.0822 89.803 47.5143ZM86.6466 36.7247C85.6932 38.0338 86.1555 39.9831 87.665 41.0837L92.1215 44.3062C93.631 45.3995 95.639 45.2269 96.5924 43.9249L96.7585 43.702C97.7047 42.3928 97.2497 40.4435 95.7329 39.3429L91.2836 36.1204C89.7669 35.0271 87.7589 35.1997 86.8127 36.5017L86.6466 36.7247Z" fill="#071773"/>
<path d="M84.8553 71.8334C83.6407 70.0706 81.9219 68.7123 79.9222 67.9347C77.1497 66.9762 74.314 66.2095 71.4354 65.6402V60.2525C72.4311 60.4309 73.3615 60.8691 74.1317 61.5224C74.9019 62.1757 75.4843 63.0208 75.8196 63.9714L85.7726 60.979C83.365 54.9944 78.586 51.8174 71.4354 51.4482V46.3555H68.5463V51.441C63.9766 51.652 60.4206 52.8508 57.8782 55.0375C56.531 56.1597 55.4544 57.5691 54.728 59.1616C54.0016 60.7541 53.644 62.4888 53.6817 64.2375C53.6475 67.0057 54.6967 69.6784 56.607 71.6895C58.4368 73.6748 62.4189 75.3029 68.5535 76.5737V82.3281C65.5633 81.9541 63.6661 80.4148 62.8619 77.7102L51.7027 79.7098C53.8744 87.3825 59.4913 91.3411 68.5535 91.5856V95.6425H71.4426V91.4921C75.7185 91.2044 79.2456 90.0056 82.024 87.8956C83.5437 86.808 84.7754 85.3691 85.6134 83.7027C86.4513 82.0363 86.8703 80.1921 86.8344 78.3288C86.8899 76.0085 86.1962 73.7317 84.8553 71.8334ZM66.5383 64.1584C66.2553 63.9798 66.0242 63.7304 65.8683 63.435C65.7124 63.1396 65.6371 62.8086 65.6499 62.4752C65.6499 61.0701 66.6298 60.2765 68.5896 60.0943V64.964C67.8685 64.8016 67.1767 64.5299 66.5383 64.1584ZM71.4715 82.3425V77.1923C72.2211 77.3723 72.9393 77.6633 73.6022 78.0554C73.934 78.2612 74.2055 78.5504 74.3893 78.8938C74.5732 79.2373 74.6629 79.623 74.6495 80.012C74.6255 81.3595 73.5541 82.1411 71.4354 82.3569L71.4715 82.3425Z" fill="#071773"/>
<path d="M91.2042 53.8097C91.2042 53.8097 108.171 56.7949 105.801 37.2656C105.801 37.2656 132.36 76.2522 99.4382 103.205L108.496 107.355L90.9586 112.074L88.0695 94.4363L95.6607 100.637C95.6607 100.637 115.039 78.6547 91.2042 53.8097Z" fill="#071773"/>
</g>
<defs>
<clipPath id="clip0">
<rect width="90.9278" height="90" fill="white" transform="translate(25 26)"/>
</clipPath>
</defs>
</svg>
