<svg width="55" height="72" viewBox="0 0 55 72" fill="none" xmlns="http://www.w3.org/2000/svg">
<g clip-path="url(#clip0)" filter="url(#filter0_d)">
<path d="M17.8369 62.9752C17.8351 63.1364 17.8655 63.2964 17.9263 63.4457C17.9872 63.5951 18.0772 63.7307 18.1911 63.8448C18.305 63.9588 18.4406 64.0489 18.5898 64.1097C18.739 64.1706 18.8988 64.201 19.0599 64.1992H20.7722C20.9912 65.5435 21.6808 66.766 22.7177 67.6482C23.7545 68.5304 25.0711 69.0148 26.4321 69.0148C27.793 69.0148 29.1096 68.5304 30.1465 67.6482C31.1834 66.766 31.8729 65.5435 32.0919 64.1992H33.8042C33.9653 64.201 34.1251 64.1706 34.2743 64.1097C34.4236 64.0489 34.5591 63.9588 34.673 63.8448C34.7869 63.7307 34.877 63.5951 34.9378 63.4457C34.9986 63.2964 35.029 63.1364 35.0272 62.9752V58.12H17.8369V62.9752Z" fill="#368DC9"/>
<path d="M26.5068 14.396C27.4355 14.3924 28.3252 14.0216 28.9819 13.3643C29.6387 12.7071 30.0092 11.8167 30.0128 10.8872V4.5088C30.0128 3.57821 29.6434 2.68573 28.9859 2.0277C28.3284 1.36967 27.4366 1 26.5068 1C25.577 1 24.6852 1.36967 24.0277 2.0277C23.3702 2.68573 23.0008 3.57821 23.0008 4.5088V10.8872C23.0114 11.8145 23.3842 12.7008 24.0394 13.3566C24.6946 14.0123 25.5802 14.3854 26.5068 14.396Z" fill="#368DC9"/>
<path d="M11.4636 15.62L6.95203 11.1048C6.2811 10.547 5.42589 10.2606 4.55461 10.302C3.68333 10.3435 2.85906 10.7097 2.24398 11.3287C1.62891 11.9476 1.26755 12.7746 1.23098 13.6468C1.19441 14.5189 1.48528 15.3733 2.04638 16.0416L6.55798 20.5568C6.8738 20.8812 7.25237 21.1378 7.6706 21.3108C8.08882 21.4839 8.53789 21.5698 8.9904 21.5632C9.90134 21.5581 10.7742 21.197 11.4229 20.5568C11.7555 20.2389 12.021 19.8573 12.2037 19.4348C12.3863 19.0123 12.4824 18.5574 12.4862 18.0971C12.49 17.6367 12.4014 17.1803 12.2258 16.7548C12.0501 16.3293 11.791 15.9435 11.4636 15.62Z" fill="#368DC9"/>
<path d="M50.9672 11.1728C50.3102 10.5184 49.421 10.151 48.494 10.151C47.567 10.151 46.6778 10.5184 46.0208 11.1728L41.5092 15.688C40.8553 16.3456 40.4882 17.2355 40.4882 18.1632C40.4882 19.0909 40.8553 19.9809 41.5092 20.6384C41.828 20.9578 42.2075 21.2102 42.6252 21.3807C43.043 21.5512 43.4905 21.6364 43.9416 21.6312C44.8495 21.6241 45.7201 21.2688 46.3741 20.6384L50.9672 16.1232C51.2993 15.8023 51.5634 15.4178 51.7438 14.9925C51.9241 14.5673 52.0171 14.11 52.0171 13.648C52.0171 13.186 51.9241 12.7288 51.7438 12.3035C51.5634 11.8783 51.2993 11.4937 50.9672 11.1728Z" fill="#368DC9"/>
<path d="M27.2949 19.4144C25.0869 19.2893 22.877 19.6262 20.8064 20.4036C18.7357 21.181 16.8496 22.3819 15.2686 23.9296C12.3032 26.7239 10.4952 30.5314 10.2032 34.5971C9.91127 38.6629 11.1566 42.69 13.6923 45.88C15.4732 48.0947 16.8738 50.5903 17.8369 53.2648H35.231C36.1775 50.5799 37.5847 48.0808 39.3893 45.88C41.256 43.5214 42.4348 40.6922 42.7955 37.7051C43.1562 34.718 42.6848 31.6893 41.4333 28.9535C40.1818 26.2178 38.199 23.8815 35.704 22.2029C33.2089 20.5243 30.2987 19.5686 27.2949 19.4416V19.4144ZM28.219 44.928V46.7912C28.2191 46.8852 28.2003 46.9783 28.164 47.065C28.1276 47.1517 28.0744 47.2303 28.0073 47.2961C27.9402 47.362 27.8607 47.4138 27.7734 47.4485C27.6861 47.4832 27.5928 47.5002 27.4988 47.4984H25.4332C25.3393 47.5002 25.246 47.4832 25.1587 47.4485C25.0714 47.4138 24.9918 47.362 24.9248 47.2961C24.8577 47.2303 24.8045 47.1517 24.7681 47.065C24.7317 46.9783 24.713 46.8852 24.713 46.7912V44.996C23.6805 44.8743 22.7205 44.4036 21.9915 43.6617C21.2626 42.9198 20.8085 41.9512 20.7043 40.916C20.7064 40.7395 20.7532 40.5664 20.8401 40.4128C20.9756 40.2814 21.1545 40.204 21.3429 40.1952H23.4221C23.572 40.1912 23.7188 40.2391 23.8376 40.3307C23.9564 40.4224 24.04 40.5522 24.0743 40.6984C24.1369 40.9565 24.2825 41.1869 24.4887 41.354C24.695 41.5212 24.9505 41.6157 25.2158 41.6232H27.0776C27.5343 41.6336 27.9798 41.4804 28.3336 41.1912C28.6874 40.9019 28.9263 40.4956 29.0072 40.0456C29.0507 39.5545 28.8994 39.0659 28.5859 38.6856C28.4196 38.5092 28.2197 38.3678 27.998 38.2697C27.7763 38.1716 27.5373 38.1188 27.2949 38.1144H25.936C24.6089 38.1256 23.3235 37.6506 22.3222 36.7787C21.3209 35.9069 20.6729 34.6986 20.5004 33.3816C20.3677 32.0697 20.7371 30.7563 21.5341 29.7063C22.331 28.6564 23.4962 27.9479 24.7946 27.724V25.8608C24.7945 25.7667 24.8133 25.6737 24.8496 25.587C24.886 25.5003 24.9392 25.4217 25.0063 25.3558C25.0734 25.29 25.1529 25.2382 25.2402 25.2035C25.3275 25.1687 25.4208 25.1518 25.5148 25.1536H27.5939C27.7813 25.1536 27.9611 25.2281 28.0936 25.3607C28.2261 25.4933 28.3006 25.6732 28.3006 25.8608V27.656C29.334 27.7753 30.2954 28.2452 31.0248 28.9876C31.7542 29.7299 32.2075 30.6999 32.3093 31.736C32.3071 31.9125 32.2604 32.0856 32.1735 32.2392C32.0394 32.3728 31.8597 32.4505 31.6707 32.4568H29.5915C29.4426 32.4629 29.2964 32.4155 29.1793 32.3233C29.0622 32.231 28.9819 32.0999 28.9528 31.9536C28.8883 31.6965 28.7421 31.4674 28.5363 31.3006C28.3304 31.1338 28.076 31.0385 27.8113 31.0288H25.9496C25.4939 31.02 25.0495 31.1718 24.6943 31.4577C24.339 31.7436 24.0956 32.1454 24.0064 32.5928C23.9722 32.8376 23.9935 33.087 24.0687 33.3224C24.144 33.5579 24.2714 33.7733 24.4413 33.9528C24.8025 34.3132 25.2901 34.5181 25.8002 34.524H27.3765C28.1043 34.529 28.8231 34.6844 29.4881 34.9803C30.1531 35.2763 30.7499 35.7065 31.241 36.244C31.7322 36.7815 32.1071 37.4147 32.3424 38.104C32.5777 38.7932 32.6682 39.5237 32.6083 40.2496C32.4668 41.3944 31.9654 42.4646 31.1764 43.3055C30.3874 44.1465 29.3518 44.7146 28.219 44.928Z" fill="#368DC9"/>
</g>
<defs>
<filter id="filter0_d" x="0" y="0" width="55" height="72" filterUnits="userSpaceOnUse" color-interpolation-filters="sRGB">
<feFlood flood-opacity="0" result="BackgroundImageFix"/>
<feColorMatrix in="SourceAlpha" type="matrix" values="0 0 0 0 0 0 0 0 0 0 0 0 0 0 0 0 0 0 127 0" result="hardAlpha"/>
<feOffset dx="1" dy="1"/>
<feGaussianBlur stdDeviation="1"/>
<feComposite in2="hardAlpha" operator="out"/>
<feColorMatrix type="matrix" values="0 0 0 0 0 0 0 0 0 0 0 0 0 0 0 0 0 0 0.25 0"/>
<feBlend mode="normal" in2="BackgroundImageFix" result="effect1_dropShadow"/>
<feBlend mode="normal" in="SourceGraphic" in2="effect1_dropShadow" result="shape"/>
</filter>
<clipPath id="clip0">
<rect width="51" height="68" fill="white" transform="translate(1 1)"/>
</clipPath>
</defs>
</svg>
