<svg width="46" height="48" viewBox="0 0 46 48" fill="none" xmlns="http://www.w3.org/2000/svg">
<g clip-path="url(#clip0)" filter="url(#filter0_d)">
<path d="M23.7764 23L41.5541 11.264C38.949 7.50914 35.1646 4.67344 30.7653 3.17991C26.3661 1.68638 21.5879 1.61506 17.1435 2.97661C12.6991 4.33817 8.82685 7.05962 6.10438 10.7349C3.38191 14.4102 1.95517 18.8424 2.037 23.3702C2.11884 27.898 3.70486 32.2788 6.55847 35.8589C9.41208 39.439 13.3803 42.0266 17.8711 43.2357C22.362 44.4447 27.1347 44.2104 31.4772 42.5676C35.8198 40.9249 39.4994 37.9618 41.9672 34.1204L23.7764 23ZM26.8197 6.68731C27.5006 6.68731 28.1662 6.88352 28.7323 7.25113C29.2984 7.61874 29.7397 8.14123 30.0002 8.75254C30.2608 9.36385 30.329 10.0365 30.1961 10.6855C30.0633 11.3345 29.7354 11.9306 29.254 12.3984C28.7725 12.8663 28.1591 13.1849 27.4913 13.314C26.8235 13.4431 26.1313 13.3769 25.5022 13.1236C24.8732 12.8704 24.3355 12.4416 23.9572 11.8915C23.5789 11.3413 23.377 10.6945 23.377 10.0328C23.377 9.14553 23.7398 8.2946 24.3854 7.66719C25.031 7.03979 25.9066 6.68731 26.8197 6.68731Z" fill="#368DC9"/>
<path d="M23.6384 2.00365C27.1747 2.00353 30.6569 2.84802 33.7785 4.46279C36.9 6.07756 39.5654 8.41312 41.5401 11.264L23.7624 23L41.9669 34.1204C39.975 37.2205 37.1849 39.7616 33.8725 41.4925C30.5601 43.2233 26.8402 44.084 23.0806 43.9893C19.321 43.8946 15.6519 42.8479 12.4362 40.9527C9.22048 39.0574 6.56955 36.3793 4.74554 33.1831C2.92154 29.9869 1.98765 26.3834 2.0362 22.7289C2.08476 19.0744 3.11408 15.4956 5.0224 12.3462C6.93071 9.19689 9.65192 6.58616 12.9169 4.77222C16.1819 2.95828 19.8775 2.00397 23.6384 2.00365ZM26.8194 13.3783C27.5003 13.3783 28.1659 13.1821 28.732 12.8145C29.2982 12.4469 29.7394 11.9244 30 11.3131C30.2605 10.7018 30.3287 10.0291 30.1959 9.38016C30.0631 8.7312 29.7352 8.13511 29.2537 7.66723C28.7722 7.19935 28.1588 6.88071 27.491 6.75163C26.8232 6.62254 26.131 6.6888 25.502 6.94202C24.8729 7.19523 24.3353 7.62401 23.957 8.17418C23.5787 8.72434 23.3768 9.37117 23.3768 10.0328C23.3768 10.9201 23.7395 11.7711 24.3851 12.3985C25.0307 13.0259 25.9064 13.3783 26.8194 13.3783ZM23.6384 1C19.6972 1.00016 15.8243 2.00018 12.4029 3.90117C8.98139 5.80216 6.1299 8.53825 4.13041 11.8388C2.13093 15.1393 1.05274 18.8899 1.00251 22.7196C0.952281 26.5493 1.93175 30.3254 3.84402 33.6744C5.75629 37.0234 8.53511 39.8292 11.9056 41.8143C15.2761 43.7994 19.1215 44.8951 23.0614 44.9928C27.0014 45.0906 30.8993 44.1871 34.3696 42.3718C37.84 40.5564 40.7626 37.8921 42.8483 34.6423C42.979 34.4204 43.0176 34.1582 42.9562 33.9095C42.8948 33.6608 42.7379 33.4443 42.5178 33.3041L25.6627 23L42.1873 12.1338C42.3983 11.9856 42.544 11.7654 42.595 11.5172C42.6461 11.2691 42.5988 11.0113 42.4627 10.7956C40.3915 7.80798 37.5965 5.36065 34.3237 3.66891C31.0509 1.97716 27.4005 1.09284 23.6935 1.09368L23.6384 1ZM26.8194 12.3747C26.3428 12.3747 25.8769 12.2374 25.4806 11.98C25.0843 11.7227 24.7754 11.3569 24.593 10.929C24.4106 10.5011 24.3629 10.0302 24.4559 9.57596C24.5489 9.12169 24.7784 8.70442 25.1154 8.3769C25.4524 8.04939 25.8818 7.82636 26.3493 7.736C26.8167 7.64564 27.3013 7.69201 27.7416 7.86926C28.1819 8.04651 28.5583 8.34667 28.8231 8.73179C29.0879 9.11691 29.2292 9.56967 29.2292 10.0328C29.2256 10.6529 28.9706 11.2465 28.5194 11.6849C28.0683 12.1233 27.4574 12.3712 26.8194 12.3747Z" fill="#368DC9"/>
</g>
<defs>
<filter id="filter0_d" x="0" y="0" width="46" height="48" filterUnits="userSpaceOnUse" color-interpolation-filters="sRGB">
<feFlood flood-opacity="0" result="BackgroundImageFix"/>
<feColorMatrix in="SourceAlpha" type="matrix" values="0 0 0 0 0 0 0 0 0 0 0 0 0 0 0 0 0 0 127 0" result="hardAlpha"/>
<feOffset dx="1" dy="1"/>
<feGaussianBlur stdDeviation="1"/>
<feComposite in2="hardAlpha" operator="out"/>
<feColorMatrix type="matrix" values="0 0 0 0 0 0 0 0 0 0 0 0 0 0 0 0 0 0 0.25 0"/>
<feBlend mode="normal" in2="BackgroundImageFix" result="effect1_dropShadow"/>
<feBlend mode="normal" in="SourceGraphic" in2="effect1_dropShadow" result="shape"/>
</filter>
<clipPath id="clip0">
<rect width="42" height="44" fill="white" transform="translate(1 1)"/>
</clipPath>
</defs>
</svg>
