<svg width="141" height="142" viewBox="0 0 141 142" fill="none" xmlns="http://www.w3.org/2000/svg">
<path d="M139.5 71C139.5 109.394 108.598 140.5 70.5 140.5C32.4023 140.5 1.5 109.394 1.5 71C1.5 32.6062 32.4023 1.5 70.5 1.5C108.598 1.5 139.5 32.6062 139.5 71Z" fill="white" stroke="#071773" stroke-width="3"/>
<g clip-path="url(#clip0)">
<path d="M78.5322 51.293C77.8855 51.293 77.2653 51.5488 76.8081 52.0043C76.3508 52.4598 76.0939 53.0775 76.0939 53.7216C76.0939 54.0403 76.157 54.3557 76.2797 54.65C76.4023 54.9443 76.582 55.2116 76.8085 55.4365C77.035 55.6615 77.3039 55.8397 77.5996 55.961C77.8954 56.0823 78.2123 56.1443 78.5322 56.1434C79.177 56.1434 79.7954 55.8882 80.2513 55.4341C80.7073 54.9799 80.9634 54.3639 80.9634 53.7216C80.9644 53.403 80.9022 53.0874 80.7804 52.7928C80.6586 52.4981 80.4797 52.2303 80.2538 52.0047C80.028 51.7791 79.7596 51.6001 79.4642 51.478C79.1688 51.3558 78.8521 51.293 78.5322 51.293Z" fill="#071773"/>
<path d="M70.79 31.0001C64.3103 31.0001 58.0961 33.564 53.5143 38.1278C48.9324 42.6916 46.3584 48.8815 46.3584 55.3358C46.3607 60.1889 47.8251 64.9298 50.5623 68.9448C50.6939 69.1568 50.8365 69.3618 50.9897 69.5589L51.1578 69.7753C51.2076 69.8502 51.2614 69.9224 51.319 69.9916C56.5809 76.9706 57.6248 82.3234 57.6248 82.3234H84.0113C84.0113 82.3234 85.0552 76.9427 90.3171 69.9916L90.4782 69.7753L90.6394 69.5589C90.7969 69.3634 90.942 69.1583 91.0738 68.9448C93.811 64.9298 95.2754 60.1889 95.2777 55.3358C95.2777 52.1352 94.6439 48.9662 93.4126 46.01C92.1813 43.0538 90.3767 40.3686 88.102 38.1081C85.8274 35.8475 83.1275 34.0562 80.1568 32.8365C77.1861 31.6168 74.0031 30.9927 70.79 31.0001ZM66.1798 69.3844H58.2975V46.0956C58.2975 45.9642 58.3499 45.8381 58.4432 45.7452C58.5364 45.6523 58.663 45.6001 58.7949 45.6001H66.1798V69.3844ZM87.4094 54.8263C87.4094 56.6772 86.6712 58.4524 85.3572 59.7612C84.0433 61.07 82.2611 61.8053 80.4029 61.8053H76.6054V69.3635H68.6951V46.0747C68.6951 45.9432 68.7475 45.8172 68.8408 45.7243C68.9341 45.6314 69.0606 45.5791 69.1925 45.5791H80.4029C82.2611 45.5791 84.0433 46.3144 85.3572 47.6232C86.6712 48.9321 87.4094 50.7072 87.4094 52.5581V54.8263Z" fill="#071773"/>
<path d="M29.0384 65.649L28.7861 65.4884C27.1375 64.46 25.9655 62.8225 25.5268 60.9348C25.0882 59.0471 25.4187 57.0632 26.446 55.4178L29.1364 51.1257C30.169 49.4817 31.8143 48.3129 33.7111 47.8758C35.6079 47.4388 37.6014 47.7693 39.2538 48.7947L39.499 48.9553C41.1526 49.9791 42.3302 51.6151 42.773 53.5036C43.2158 55.3921 42.8875 57.3785 41.8602 59.0259L39.1697 63.318C38.6584 64.1339 37.9907 64.8415 37.2047 65.4003C36.4187 65.9591 35.5299 66.3582 34.589 66.5746C33.6481 66.7911 32.6736 66.8208 31.7212 66.662C30.7688 66.5031 29.8571 66.1589 29.0384 65.649ZM37.0258 52.347C36.3186 51.9124 35.4677 51.7734 34.6581 51.9602C33.8486 52.1471 33.1459 52.6448 32.7027 53.345L30.0123 57.6371C29.5744 58.3399 29.4339 59.187 29.6217 59.9928C29.8095 60.7985 30.3102 61.4973 31.0142 61.9362L31.2664 62.0967C31.972 62.5328 32.8224 62.6727 33.6314 62.4857C34.4403 62.2986 35.1419 61.7999 35.5824 61.0987L38.2729 56.8066C38.491 56.4592 38.6382 56.0725 38.7062 55.6685C38.7743 55.2645 38.7617 54.851 38.6693 54.4518C38.5769 54.0526 38.4065 53.6755 38.1678 53.3419C37.9291 53.0083 37.6267 52.7248 37.278 52.5076L37.0258 52.347Z" fill="#071773"/>
<path d="M27.9734 90.9154H27.6791C25.7345 90.9698 23.8478 90.2526 22.434 88.9216C21.0202 87.5906 20.1951 85.7547 20.1401 83.8177L20 78.758C19.9491 76.8185 20.6733 74.9383 22.0133 73.5302C23.3533 72.1222 25.1996 71.3016 27.1466 71.2486H27.4409C29.3868 71.1979 31.2735 71.9182 32.6868 73.2515C34.1002 74.5847 34.9249 76.422 34.9799 78.3602L35.12 83.413C35.1671 85.3507 34.4415 87.2281 33.1021 88.6342C31.7627 90.0403 29.9186 90.8605 27.9734 90.9154ZM27.2727 75.436C26.4414 75.4597 25.6535 75.8111 25.082 76.413C24.5106 77.015 24.2023 77.8182 24.2249 78.6463L24.358 83.6991C24.3819 84.5272 24.7347 85.312 25.339 85.8812C25.9432 86.4504 26.7496 86.7575 27.581 86.7349H27.8753C28.7048 86.7094 29.4905 86.3584 30.0614 85.7584C30.6323 85.1584 30.942 84.358 30.9231 83.5316L30.783 78.4718C30.7591 77.645 30.4073 76.8612 29.8046 76.2922C29.2018 75.7232 28.3972 75.4153 27.567 75.436H27.2727Z" fill="#071773"/>
<path d="M52.7623 104.678L52.6012 104.929C51.537 106.551 49.8709 107.686 47.968 108.086C46.065 108.487 44.0804 108.119 42.4488 107.065L38.1888 104.273C36.5594 103.214 35.4185 101.555 35.0165 99.6588C34.6145 97.7628 34.9844 95.7854 36.0449 94.1608L36.206 93.9095C37.2756 92.2934 38.9449 91.1655 40.8479 90.773C42.7509 90.3806 44.7325 90.7556 46.3584 91.8158L50.6184 94.6074C52.2346 95.667 53.3662 97.3186 53.7675 99.204C54.1689 101.089 53.8077 103.056 52.7623 104.678ZM39.5691 96.4708C39.1162 97.1644 38.9577 98.0085 39.1285 98.8182C39.2992 99.628 39.7852 100.337 40.48 100.791L44.7399 103.582C45.0848 103.806 45.4707 103.96 45.8755 104.036C46.2802 104.111 46.6959 104.106 47.0988 104.021C47.5016 103.936 47.8836 103.773 48.2231 103.541C48.5625 103.309 48.8527 103.012 49.0769 102.668L49.2381 102.424C49.4629 102.08 49.6176 101.696 49.6932 101.293C49.7687 100.89 49.7638 100.476 49.6785 100.074C49.5932 99.673 49.4294 99.2925 49.1963 98.9544C48.9633 98.6163 48.6656 98.3273 48.3202 98.1039L44.0673 95.3123C43.3724 94.8706 42.531 94.7188 41.7247 94.8899C40.9185 95.061 40.2121 95.5411 39.7583 96.2265L39.5691 96.4708Z" fill="#071773"/>
<path d="M59.3765 103.693V103.4C59.3765 99.3661 63.181 96.0859 67.8543 96.0859H73.7258C78.3991 96.0859 82.2036 99.3661 82.2036 103.4V103.693C82.2036 107.72 78.3991 111 73.7258 111H67.8543C63.181 111 59.3765 107.72 59.3765 103.693ZM77.3481 103.4C77.3481 101.676 75.7226 100.273 73.7258 100.273H67.8543C65.8575 100.273 64.232 101.669 64.232 103.4V103.693C64.232 105.417 65.8575 106.813 67.8543 106.813H73.7258C75.7226 106.813 77.3481 105.417 77.3481 103.693V103.4Z" fill="#071773"/>
<path d="M33.5398 59.2325L32.7735 58.9845C31.8535 58.6867 30.8653 59.1882 30.5664 60.1047L25.4935 75.6561C25.1945 76.5725 25.698 77.5568 26.6181 77.8546L27.3844 78.1026C28.3044 78.4004 29.2926 77.8988 29.5916 76.9824L34.6645 61.431C34.9634 60.5146 34.4599 59.5302 33.5398 59.2325Z" fill="#071773"/>
<path d="M28.2636 83.2662L27.6815 83.8211C26.9826 84.4873 26.9582 85.5917 27.627 86.2879L38.977 98.1018C39.6458 98.798 40.7546 98.8222 41.4535 98.156L42.0357 97.6011C42.7346 96.9349 42.759 95.8305 42.0902 95.1343L30.7402 83.3204C30.0714 82.6242 28.9626 82.5999 28.2636 83.2662Z" fill="#071773"/>
<path d="M46.0214 101.008L45.921 101.804C45.8004 102.76 46.4808 103.633 47.4406 103.753L65.3555 105.994C66.3154 106.114 67.1913 105.437 67.3118 104.481L67.4123 103.684C67.5328 102.728 66.8525 101.856 65.8926 101.736L47.9777 99.494C47.0179 99.3739 46.142 100.052 46.0214 101.008Z" fill="#071773"/>
<path d="M102.431 63.3563L99.7408 59.0642C99.2273 58.2463 98.8814 57.3353 98.7228 56.3836C98.5643 55.4319 98.5963 54.4584 98.8171 53.5191C99.0379 52.5798 99.443 51.6933 100.009 50.9106C100.575 50.1279 101.291 49.4645 102.116 48.9587L102.361 48.7981C104.013 47.7731 106.005 47.4428 107.901 47.8798C109.796 48.3169 111.44 49.4855 112.472 51.1291L115.162 55.4212C116.191 57.0661 116.523 59.0506 116.084 60.9389C115.645 62.8271 114.472 64.4647 112.822 65.4919L112.577 65.6524C111.759 66.1661 110.849 66.5142 109.896 66.6768C108.944 66.8394 107.968 66.8133 107.026 66.6001C106.084 66.3868 105.193 65.9905 104.404 65.4339C103.616 64.8773 102.945 64.1713 102.431 63.3563ZM104.302 52.5459C103.953 52.7631 103.651 53.0466 103.412 53.3802C103.174 53.7138 103.003 54.0909 102.911 54.4901C102.818 54.8893 102.806 55.3028 102.874 55.7068C102.942 56.1108 103.089 56.4976 103.307 56.8449L105.998 61.137C106.438 61.8382 107.14 62.3369 107.949 62.524C108.758 62.711 109.608 62.5712 110.314 62.135L110.566 61.9745C110.915 61.7573 111.217 61.4737 111.456 61.1401C111.694 60.8065 111.865 60.4294 111.957 60.0302C112.05 59.631 112.062 59.2175 111.994 58.8135C111.926 58.4095 111.779 58.0228 111.561 57.6754L108.87 53.3833C108.43 52.6821 107.728 52.1834 106.919 51.9963C106.11 51.8093 105.26 51.9492 104.554 52.3853L104.302 52.5459Z" fill="#071773"/>
<path d="M106.467 83.4051L106.607 78.3524C106.662 76.4142 107.487 74.5769 108.9 73.2437C110.314 71.9104 112.2 71.1901 114.146 71.2408H114.44C116.385 71.2974 118.228 72.1196 119.565 73.5272C120.902 74.9349 121.624 76.813 121.573 78.7502L121.433 83.8099C121.38 85.7469 120.556 87.5835 119.144 88.9158C117.731 90.2481 115.846 90.9671 113.901 90.9145H113.607C111.661 90.8597 109.816 90.0383 108.478 88.6305C107.139 87.2226 106.416 85.3434 106.467 83.4051ZM114.027 75.4282C113.197 75.4075 112.392 75.7154 111.789 76.2844C111.187 76.8534 110.835 77.6372 110.811 78.464L110.671 83.5238C110.65 84.3507 110.959 85.1521 111.531 85.7525C112.102 86.3529 112.889 86.7034 113.719 86.7271H114.013C114.844 86.7497 115.651 86.4426 116.255 85.8734C116.859 85.3042 117.212 84.5194 117.236 83.6913L117.369 78.6385C117.392 77.8104 117.083 77.0072 116.512 76.4052C115.941 75.8033 115.153 75.4519 114.321 75.4282H114.027Z" fill="#071773"/>
<path d="M90.9617 94.5644L95.2216 91.7728C96.8476 90.7126 98.8292 90.3376 100.732 90.73C102.635 91.1225 104.304 92.2504 105.374 93.8665L105.535 94.1178C106.596 95.7424 106.966 97.7198 106.564 99.6159C106.162 101.512 105.021 103.172 103.391 104.23L99.1313 107.022C97.5002 108.078 95.515 108.447 93.6115 108.046C91.708 107.646 90.0418 106.509 88.9789 104.886L88.8177 104.635C87.7723 103.013 87.4111 101.046 87.8125 99.161C88.2139 97.2757 89.3455 95.624 90.9617 94.5644ZM101.85 96.2254C101.396 95.5322 100.684 95.0467 99.871 94.8753C99.058 94.7039 98.2099 94.8607 97.5128 95.3112L93.2598 98.1028C92.9145 98.3262 92.6168 98.6152 92.3837 98.9533C92.1507 99.2914 91.9868 99.6719 91.9016 100.073C91.8163 100.474 91.8113 100.888 91.8869 101.292C91.9625 101.695 92.1171 102.079 92.342 102.423L92.5031 102.667C92.7274 103.011 93.0175 103.308 93.357 103.54C93.6964 103.772 94.0785 103.935 94.4813 104.02C94.8841 104.105 95.2998 104.11 95.7046 104.035C96.1093 103.959 96.4952 103.805 96.8401 103.581L101.093 100.79C101.438 100.566 101.736 100.277 101.969 99.9392C102.202 99.6011 102.366 99.2205 102.451 98.8193C102.537 98.418 102.542 98.004 102.466 97.6008C102.39 97.1976 102.236 96.8133 102.011 96.4697L101.85 96.2254Z" fill="#071773"/>
<path d="M73.7258 111H67.8543C63.181 111 59.3765 107.72 59.3765 103.693V103.4C59.3765 99.3661 63.181 96.0859 67.8543 96.0859H73.7258C78.3991 96.0859 82.2036 99.3661 82.2036 103.4V103.693C82.2036 107.72 78.3991 111 73.7258 111ZM64.232 103.693C64.232 105.417 65.8575 106.813 67.8543 106.813H73.7258C75.7226 106.813 77.3481 105.417 77.3481 103.693V103.4C77.3481 101.676 75.7226 100.273 73.7258 100.273H67.8543C65.8575 100.273 64.232 101.669 64.232 103.4V103.693Z" fill="#071773"/>
<path d="M114.182 78.0919L114.949 77.8438C115.869 77.5461 116.372 76.5618 116.073 75.6453L111.001 60.0939C110.702 59.1775 109.713 58.676 108.793 58.9737L108.027 59.2217C107.107 59.5195 106.603 60.5038 106.902 61.4202L111.975 76.9717C112.274 77.8881 113.262 78.3896 114.182 78.0919Z" fill="#071773"/>
<path d="M99.5473 97.5982L100.129 98.1531C100.828 98.8193 101.937 98.795 102.606 98.0988L113.956 86.2849C114.625 85.5888 114.6 84.4843 113.902 83.8181L113.319 83.2632C112.62 82.597 111.512 82.6213 110.843 83.3175L99.4929 95.1313C98.824 95.8275 98.8484 96.932 99.5473 97.5982Z" fill="#071773"/>
<path d="M74.1554 103.699L74.2559 104.495C74.3764 105.452 75.2523 106.129 76.2121 106.009L94.1271 103.767C95.0869 103.647 95.7673 102.775 95.6467 101.819L95.5463 101.023C95.4257 100.066 94.5498 99.3888 93.59 99.5089L75.6751 101.75C74.7152 101.871 74.0349 102.743 74.1554 103.699Z" fill="#071773"/>
<path d="M57.4847 84.543H84.1093V90.824C84.1093 91.0926 84.0562 91.3585 83.9531 91.6066C83.8499 91.8547 83.6987 92.0801 83.5081 92.27C83.3174 92.4598 83.0911 92.6105 82.8421 92.7132C82.593 92.816 82.326 92.8689 82.0564 92.8689H59.7128C59.12 92.8689 58.5515 92.6343 58.1323 92.2168C57.7132 91.7993 57.4777 91.233 57.4777 90.6426V84.543H57.4847Z" fill="#071773"/>
</g>
<defs>
<clipPath id="clip0">
<rect width="101.573" height="80" fill="white" transform="translate(20 31)"/>
</clipPath>
</defs>
</svg>
