<svg width="33" height="56" viewBox="0 0 33 56" fill="none" xmlns="http://www.w3.org/2000/svg">
<g clip-path="url(#clip0)" filter="url(#filter0_d)">
<path d="M24.1894 48.9738C23.832 48.9738 23.7526 48.7698 23.66 48.5522C23.2855 47.4927 22.5713 46.5956 21.6349 46.0086C20.1127 45.0701 17.8361 42.8122 17.8361 40.7719C17.8361 38.7316 20.801 38.1195 20.801 36.7865C20.7693 36.2767 20.563 35.7948 20.2186 35.4263C20.2186 35.0455 19.9142 34.8551 19.6098 34.7735C19.1351 34.3568 18.757 33.8365 18.5028 33.2506C18.2486 32.6647 18.1249 32.0279 18.1406 31.3866C18.1406 29.3599 21.1452 28.3398 26.0822 23.3343C29.6559 19.7434 29.9603 3.63874 29.9603 2.78182C29.9603 1.9249 28.6367 1.06799 27.6837 1.06799H3.27659C2.36331 1.06799 1 1.9249 1 2.78182C1 3.63874 1.30442 19.7434 4.87813 23.3343C9.85485 28.3398 12.8197 29.3599 12.8197 31.3866C12.8354 32.0279 12.7117 32.6647 12.4575 33.2506C12.2033 33.8365 11.8252 34.3568 11.3505 34.7735C11.0461 34.8551 10.7152 35.0455 10.7417 35.4263C10.3973 35.7948 10.191 36.2767 10.1593 36.7865C10.1593 38.1467 13.1241 38.7452 13.1241 40.7719C13.1241 42.7986 10.8476 45.0701 9.32543 46.0086C8.38523 46.5974 7.67032 47.5001 7.30033 48.5658C7.20768 48.7834 7.12827 48.9738 6.7709 48.9874C5.11641 49.069 2.80008 49.4499 2.35005 50.9189C1.79414 52.8504 5.19582 53 5.85762 53H25.1027C25.7645 53 29.1662 52.8504 28.6102 50.9189C28.1735 49.4363 25.8307 49.0554 24.1894 48.9738Z" fill="#368DC9"/>
</g>
<defs>
<filter id="filter0_d" x="0" y="0" width="33" height="56" filterUnits="userSpaceOnUse" color-interpolation-filters="sRGB">
<feFlood flood-opacity="0" result="BackgroundImageFix"/>
<feColorMatrix in="SourceAlpha" type="matrix" values="0 0 0 0 0 0 0 0 0 0 0 0 0 0 0 0 0 0 127 0" result="hardAlpha"/>
<feOffset dx="1" dy="1"/>
<feGaussianBlur stdDeviation="1"/>
<feComposite in2="hardAlpha" operator="out"/>
<feColorMatrix type="matrix" values="0 0 0 0 0 0 0 0 0 0 0 0 0 0 0 0 0 0 0.25 0"/>
<feBlend mode="normal" in2="BackgroundImageFix" result="effect1_dropShadow"/>
<feBlend mode="normal" in="SourceGraphic" in2="effect1_dropShadow" result="shape"/>
</filter>
<clipPath id="clip0">
<rect width="29" height="52" fill="white" transform="translate(1 1)"/>
</clipPath>
</defs>
</svg>
