<svg width="55" height="42" viewBox="0 0 55 42" fill="none" xmlns="http://www.w3.org/2000/svg">
<g clip-path="url(#clip0)" filter="url(#filter0_d)">
<path d="M19.3374 13.065C19.627 12.879 19.9633 12.7802 20.3068 12.7802C20.6502 12.7802 20.9865 12.879 21.2762 13.065L29.7313 21.5879L33.7703 17.5164C33.8984 17.3956 34.0529 17.3068 34.2213 17.2573C34.3897 17.2078 34.5673 17.1989 34.7397 17.2314C34.9122 17.2 35.0895 17.2094 35.2577 17.2588C35.4259 17.3083 35.5805 17.3965 35.7091 17.5164L50.8421 32.7843C51.6112 31.2383 52.0123 29.533 52.0135 27.8036V12.1829C52.0135 10.7143 51.7265 9.26013 51.169 7.90336C50.6115 6.54659 49.7943 5.3138 48.7641 4.27538C47.734 3.23695 46.511 2.41324 45.165 1.85125C43.819 1.28926 42.3764 1 40.9195 1H12.0805C9.14056 1.0036 6.32222 2.18337 4.2446 4.28017C2.16699 6.37698 1.00001 9.21933 1.00002 12.1829V27.8171C0.996847 28.9203 1.15564 30.018 1.47124 31.0743L19.3374 13.065ZM38.1864 6.59143C38.9509 6.60214 39.6952 6.84044 40.3257 7.27637C40.9563 7.71231 41.4449 8.32642 41.7301 9.04149C42.0154 9.75656 42.0845 10.5407 41.9289 11.2953C41.7732 12.0498 41.3997 12.7412 40.8554 13.2824C40.311 13.8236 39.6201 14.1905 38.8694 14.337C38.1188 14.4834 37.3419 14.4029 36.6365 14.1056C35.9311 13.8082 35.3287 13.3073 34.905 12.6657C34.4812 12.0242 34.2551 11.2707 34.255 10.5C34.255 9.98558 34.3558 9.4762 34.5515 9.00111C34.7472 8.52601 35.034 8.09454 35.3955 7.73142C35.757 7.3683 36.186 7.08067 36.658 6.88505C37.13 6.68942 37.6357 6.58965 38.146 6.59143H38.1864Z" fill="#368DC9"/>
<path d="M12.4979 39L28.1695 23.1621L20.3067 15.25L2.41367 33.2864C3.37576 35.0189 4.77861 36.4616 6.47774 37.4658C8.17686 38.4701 10.1108 38.9997 12.0805 39H12.471H12.4979Z" fill="#368DC9"/>
<path d="M34.7262 19.715L15.5945 39H40.9195C42.5946 38.9995 44.2478 38.6157 45.7544 37.8775C47.261 37.1393 48.5817 36.066 49.6169 34.7385L34.7262 19.715Z" fill="#368DC9"/>
</g>
<defs>
<filter id="filter0_d" x="0" y="0" width="55" height="42" filterUnits="userSpaceOnUse" color-interpolation-filters="sRGB">
<feFlood flood-opacity="0" result="BackgroundImageFix"/>
<feColorMatrix in="SourceAlpha" type="matrix" values="0 0 0 0 0 0 0 0 0 0 0 0 0 0 0 0 0 0 127 0" result="hardAlpha"/>
<feOffset dx="1" dy="1"/>
<feGaussianBlur stdDeviation="1"/>
<feComposite in2="hardAlpha" operator="out"/>
<feColorMatrix type="matrix" values="0 0 0 0 0 0 0 0 0 0 0 0 0 0 0 0 0 0 0.25 0"/>
<feBlend mode="normal" in2="BackgroundImageFix" result="effect1_dropShadow"/>
<feBlend mode="normal" in="SourceGraphic" in2="effect1_dropShadow" result="shape"/>
</filter>
<clipPath id="clip0">
<rect width="51" height="38" fill="white" transform="translate(1 1)"/>
</clipPath>
</defs>
</svg>
