<svg width="17" height="18" viewBox="0 0 17 18" fill="none" xmlns="http://www.w3.org/2000/svg">
<path d="M10.7898 7.75412C10.7898 8.17336 10.6259 8.57544 10.3342 8.87189C10.0425 9.16834 9.64689 9.33489 9.23437 9.33489C8.82255 9.33379 8.42797 9.16675 8.13715 8.87042C7.84634 8.57409 7.68302 8.17264 7.68302 7.75412C7.68302 7.33597 7.84647 6.93496 8.1374 6.63929C8.42833 6.34362 8.82292 6.17751 9.23437 6.17751C9.64618 6.17751 10.0412 6.34348 10.3328 6.63903C10.6244 6.93459 10.7887 7.33559 10.7898 7.75412V7.75412ZM3.13133 16.5357C3.13133 16.5357 4.0032 17.297 6.15624 18C6.15624 18 8.44437 15.841 9.53317 13.2494C9.53317 13.2494 10.2372 11.5022 8.89053 10.8949C7.54385 10.2875 6.89712 11.8516 6.69246 12.2676C5.88192 13.975 4.65624 15.444 3.13133 16.5357ZM9.23437 2.78869e-05C7.21115 0.0011301 5.27111 0.818432 3.84047 2.27237C2.40984 3.7263 1.60564 5.69794 1.60456 7.75412C1.60215 8.84832 1.82962 9.93044 2.27175 10.9281C1.74142 11.8645 0.951237 12.6213 0 13.1038C0.500693 13.983 1.11312 14.7915 1.8215 15.5082C2.66855 14.9462 3.43099 14.2624 4.08506 13.4782C4.69622 12.7601 5.17463 11.9356 5.49723 11.0446C5.55843 10.8783 5.55843 10.6951 5.49723 10.5288C4.91725 9.724 4.60598 8.75166 4.609 7.75412C4.60953 7.13755 4.72963 6.52714 4.96242 5.95777C5.1952 5.3884 5.53612 4.87124 5.96568 4.43584C6.39524 4.00045 6.90502 3.65535 7.46588 3.42029C8.02674 3.18522 8.62768 3.0648 9.23437 3.06589C10.4582 3.06589 11.632 3.55969 12.4978 4.43879C13.3635 5.31788 13.8505 6.51034 13.8515 7.75412C13.8521 8.57847 13.6385 9.38835 13.2324 10.102C12.8263 10.8156 12.2422 11.4076 11.5389 11.8184C11.4629 12.3716 11.3355 12.9162 11.1582 13.4449C10.9449 14.1408 10.645 14.8062 10.2659 15.425C12.0962 15.1773 13.7762 14.2635 14.994 12.8529C16.2119 11.4423 16.8851 9.63072 16.8887 7.75412C16.8882 6.73389 16.6897 5.72378 16.3045 4.78163C15.9194 3.83948 15.3551 2.98378 14.6441 2.26353C13.9332 1.54328 13.0894 0.972617 12.1611 0.584214C11.2328 0.19581 10.2382 -0.00270746 9.23437 2.78869e-05V2.78869e-05Z" fill="url(#paint0_linear)"/>
<defs>
<linearGradient id="paint0_linear" x1="-25.0998" y1="51.9533" x2="13.6779" y2="3.62544" gradientUnits="userSpaceOnUse">
<stop offset="0.73" stop-color="#1E6FC1"/>
<stop offset="1" stop-color="#73E5DA"/>
</linearGradient>
</defs>
</svg>
