<svg width="142" height="142" viewBox="0 0 142 142" fill="none" xmlns="http://www.w3.org/2000/svg">
<circle cx="71" cy="71" r="69.5" fill="white" stroke="#071773" stroke-width="3"/>
<g clip-path="url(#clip0)">
<path d="M40.6741 83.2907L32.4668 78.9739C32.1705 78.8179 31.9405 78.5589 31.8195 78.2452C31.6986 77.9314 31.6948 77.5841 31.8091 77.2678L41.2514 51.3012C41.374 50.9693 41.6173 50.6966 41.932 50.5382C42.2468 50.3799 42.6095 50.3477 42.947 50.4481L47.9386 51.963C49.5925 52.4056 51.349 52.2414 52.8936 51.4997C56.0727 49.9554 60.0339 48.0287 66.6114 49.7936L65.8805 52.4705C60.2897 50.9997 57.1105 52.5146 54.0703 54.0001C51.8897 55.0609 49.3969 55.2756 47.0689 54.6031L43.4147 53.4853L34.8347 77.0766L41.9677 80.8271L40.6741 83.2907Z" fill="#071773"/>
<path d="M44.796 88.3236C44.03 88.3251 43.2812 88.0944 42.6473 87.6618C42.2242 87.3791 41.8615 87.0143 41.5804 86.5887C41.2993 86.1632 41.1055 85.6854 41.0102 85.1835C40.9073 84.6788 40.906 84.1584 41.0064 83.6531C41.1069 83.1479 41.307 82.668 41.5949 82.2419L45.9799 75.6234C46.2608 75.1977 46.6234 74.8328 47.0463 74.5499C47.4692 74.267 47.944 74.072 48.4428 73.9762C48.9445 73.8734 49.4615 73.8725 49.9635 73.9736C50.4655 74.0746 50.9424 74.2755 51.3662 74.5645C52.2154 75.1412 52.8029 76.033 53.0001 77.0447C53.1974 78.0563 52.9882 79.1054 52.4186 79.9622L48.0336 86.5807C47.6793 87.1181 47.1981 87.5586 46.633 87.8627C46.068 88.1669 45.4368 88.3253 44.796 88.3236ZM49.181 76.7412H48.9617C48.8141 76.7642 48.6728 76.818 48.547 76.899C48.4211 76.98 48.3135 77.0866 48.2309 77.2119L43.8459 83.7936C43.6824 84.0399 43.622 84.3411 43.6778 84.632C43.7027 84.7798 43.757 84.9212 43.8373 85.0475C43.9177 85.1739 44.0225 85.2826 44.1455 85.3673C44.3903 85.527 44.6871 85.5848 44.9734 85.5286C45.2597 85.4724 45.5132 85.3064 45.6803 85.0658L50.0653 78.4841C50.1467 78.363 50.2035 78.2269 50.2325 78.0837C50.2614 77.9404 50.262 77.7928 50.2342 77.6493C50.2064 77.5058 50.1506 77.3693 50.0702 77.2475C49.9898 77.1258 49.8863 77.0212 49.7656 76.9398C49.6001 76.8222 49.4052 76.7534 49.2029 76.7412H49.181Z" fill="#071773"/>
<path d="M49.6779 93.2792C48.9119 93.2807 48.1632 93.0501 47.5293 92.6174C46.6785 92.0419 46.0897 91.15 45.8923 90.1378C45.695 89.1256 45.9052 88.0759 46.4769 87.2196L50.8619 80.6379C51.4338 79.7818 52.3202 79.1893 53.3261 78.9908C54.3321 78.7922 55.3752 79.0037 56.2262 79.5789C56.6473 79.8629 57.0083 80.2282 57.288 80.6536C57.5678 81.079 57.7608 81.5561 57.856 82.0572C57.9602 82.5619 57.9621 83.0825 57.8616 83.5879C57.7612 84.0934 57.5604 84.5732 57.2713 84.9987L52.8863 91.5805C52.5303 92.106 52.0516 92.5356 51.4922 92.8317C50.9329 93.1279 50.31 93.2816 49.6779 93.2792ZM54.0629 81.6969C53.8816 81.6954 53.7028 81.7389 53.5421 81.8236C53.3815 81.9082 53.2441 82.0314 53.1421 82.1822L48.7571 88.8007C48.6757 88.9218 48.6189 89.0579 48.5899 89.2012C48.5609 89.3444 48.5603 89.492 48.5882 89.6355C48.616 89.779 48.6717 89.9155 48.7521 90.0373C48.8325 90.159 48.936 90.2636 49.0567 90.345C49.3025 90.5011 49.5983 90.5568 49.8836 90.5008C50.1688 90.4447 50.422 90.2812 50.5915 90.0435L54.9765 83.425C55.0591 83.3052 55.1166 83.1698 55.1455 83.0269C55.1744 82.8841 55.1741 82.7368 55.1446 82.594C55.12 82.446 55.0659 82.3045 54.9855 82.1781C54.9052 82.0517 54.8001 81.9431 54.6768 81.8586C54.4922 81.7458 54.2788 81.6896 54.0629 81.6969Z" fill="#071773"/>
<path d="M55.1299 97.3827C54.3639 97.3841 53.6152 97.1535 52.9813 96.7208C52.1305 96.1453 51.5417 95.2534 51.3444 94.2412C51.147 93.229 51.3573 92.1793 51.9289 91.323L55.7585 85.5944C56.041 85.1707 56.4037 84.8072 56.8258 84.5247C57.248 84.2422 57.7214 84.0462 58.2189 83.9478C58.7164 83.8495 59.2283 83.8508 59.7253 83.9516C60.2223 84.0524 60.6947 84.2508 61.1155 84.5354C61.9662 85.1109 62.555 86.0028 62.7524 87.015C62.9497 88.0272 62.7395 89.0769 62.1679 89.9331L58.3456 95.6618C57.9904 96.1915 57.5115 96.6254 56.9509 96.9254C56.3902 97.2254 55.7649 97.3824 55.1299 97.3827ZM58.9668 86.646C58.785 86.646 58.6059 86.6909 58.4454 86.7768C58.2848 86.8627 58.1477 86.987 58.046 87.1387L54.2164 92.8674C54.0529 93.1136 53.9925 93.4149 54.0483 93.7057C54.0724 93.8539 54.1263 93.9955 54.2068 94.1219C54.2872 94.2484 54.3924 94.357 54.516 94.4411C54.7608 94.6008 55.0576 94.6586 55.344 94.6023C55.6303 94.5461 55.8837 94.3802 56.0508 94.1396L59.8804 88.4109C59.9628 88.2896 60.0202 88.1529 60.0491 88.0089C60.0779 87.8649 60.0777 87.7165 60.0485 87.5725C60.0223 87.4251 59.9676 87.2842 59.8873 87.158C59.8071 87.0318 59.7029 86.9228 59.5807 86.8372C59.3989 86.7147 59.1856 86.6483 58.9668 86.646Z" fill="#071773"/>
<path d="M61.0789 100.744C60.2989 100.748 59.5355 100.518 58.8864 100.082C58.0372 99.5056 57.4497 98.6138 57.2525 97.6022C57.0552 96.5905 57.2643 95.5415 57.834 94.6846L60.5966 90.5444C61.171 89.6881 62.0592 89.0958 63.0668 88.8971C63.5685 88.7952 64.0853 88.7947 64.5872 88.8957C65.0891 88.9967 65.566 89.1972 65.9901 89.4854C66.4137 89.7692 66.7767 90.1353 67.0578 90.5621C67.3389 90.9889 67.5325 91.4679 67.6272 91.971C67.7301 92.4758 67.7314 92.9962 67.631 93.5014C67.5306 94.0067 67.3305 94.4865 67.0425 94.9126L64.2946 99.0234C63.9408 99.5545 63.4622 99.9894 62.9012 100.29C62.3402 100.59 61.7143 100.746 61.0789 100.744ZM63.8488 91.6033H63.6295C63.4816 91.6255 63.34 91.6788 63.214 91.7599C63.0881 91.8411 62.9806 91.9481 62.8987 92.074L60.1361 96.2069C60.0548 96.328 59.9979 96.4641 59.969 96.6073C59.94 96.7506 59.9394 96.8982 59.9672 97.0417C59.9951 97.1851 60.0508 97.3217 60.1312 97.4434C60.2116 97.5652 60.3151 97.6698 60.4358 97.7512C60.6806 97.9109 60.9774 97.9687 61.2637 97.9124C61.55 97.8562 61.8034 97.6903 61.9705 97.4497L64.7331 93.3168C64.8155 93.1955 64.8729 93.0588 64.9018 92.9148C64.9306 92.7708 64.9304 92.6224 64.9012 92.4785C64.8762 92.3306 64.822 92.1892 64.7416 92.0629C64.6613 91.9366 64.5565 91.8278 64.4334 91.7431C64.2547 91.644 64.0527 91.5957 63.8488 91.6033Z" fill="#071773"/>
<path d="M94.3099 87.6974H94.1564C93.9247 87.6721 93.7033 87.588 93.5128 87.453C93.3223 87.3179 93.169 87.1363 93.0675 86.9252L86.6215 73.4896L79.4813 64.5473C79.3861 64.4368 79.3118 64.3097 79.2621 64.1722C79.1013 63.9222 78.2389 63.3412 75.9952 63.4368C73.7516 63.5324 72.933 64.2899 71.1571 65.768C69.843 66.8988 68.4482 67.9311 66.984 68.8567C61.4078 72.3424 56.8547 69.6288 56.6647 69.5112C56.1172 69.123 55.6518 68.6293 55.2955 68.0587C54.9392 67.4881 54.6991 66.8519 54.5891 66.1872C54.2602 64.2899 54.9253 62.2234 56.5624 60.0467C60.2165 55.171 65.9462 49.1188 68.1461 47.8171C70.0462 46.6993 73.1084 45.5595 79.9783 46.7214C82.4417 47.1644 84.8554 47.8517 87.1843 48.7731C89.1722 49.5085 90.7361 50.0968 92.4097 49.9792C94.6551 49.8066 96.8673 49.3317 98.9873 48.5672C99.3341 48.4391 99.7169 48.4523 100.054 48.604C100.222 48.6796 100.373 48.7882 100.499 48.9233C100.624 49.0584 100.721 49.2174 100.785 49.3909L110.922 77.4093C110.986 77.5824 111.014 77.7668 111.005 77.9514C110.997 78.1359 110.951 78.3167 110.871 78.4829C110.793 78.654 110.682 78.8075 110.544 78.934C110.406 79.0604 110.243 79.1572 110.067 79.2183C109.95 79.2551 98.7753 83.035 95.45 87.2341C95.3092 87.3955 95.1327 87.5216 94.9347 87.602C94.7367 87.6825 94.5227 87.7151 94.3099 87.6974ZM81.7323 62.9074L88.8725 71.8423C88.9371 71.9233 88.9912 72.0123 89.0333 72.1071L94.7046 83.9395C98.4391 80.6891 105.002 78.0564 107.86 77.0121L98.6438 51.5823C96.6819 52.1848 94.6598 52.5671 92.6144 52.7222C90.3561 52.8619 88.4559 52.1633 86.2561 51.347C84.0863 50.4841 81.8364 49.8411 79.5398 49.4276C73.5542 48.4128 71.0621 49.3026 69.5639 50.163C68.0657 51.0234 62.7233 56.4065 58.7841 61.6645C57.644 63.1868 57.1397 64.6061 57.3224 65.6577C57.4093 66.2315 57.7002 66.7541 58.1409 67.1285C58.521 67.3344 61.627 68.9155 65.5443 66.474C66.9011 65.6146 68.1933 64.656 69.4104 63.606C71.296 62.0322 72.7942 60.7894 75.871 60.6644C80.0002 60.4364 81.3376 62.1278 81.7323 62.9074Z" fill="#071773"/>
<path d="M69.8417 101.248C66.8452 101.248 63.995 97.8363 63.4103 97.0935C63.1834 96.8055 63.079 96.4388 63.1201 96.0736C63.1612 95.7084 63.3444 95.3744 63.6296 95.1447C63.7714 95.0311 63.9341 94.9469 64.1084 94.8968C64.2827 94.8468 64.4651 94.8319 64.6451 94.8531C64.8251 94.8743 64.9992 94.9311 65.1573 95.0203C65.3154 95.1095 65.4544 95.2293 65.5663 95.3727C66.6845 96.7847 68.9135 98.7334 70.0828 98.4393C72.1584 97.9319 72.5457 96.7038 72.5384 96.4905C72.5276 96.3061 72.5534 96.1215 72.6143 95.9472C72.6752 95.773 72.77 95.6128 72.8932 95.4758C73.0163 95.3389 73.1654 95.2281 73.3316 95.1497C73.4978 95.0714 73.6779 95.0272 73.8612 95.0197C74.0445 95.0088 74.228 95.0348 74.4011 95.0961C74.5743 95.1574 74.7335 95.2527 74.8696 95.3767C75.0057 95.5006 75.1159 95.6506 75.1937 95.8178C75.2715 95.9851 75.3155 96.1663 75.3229 96.3508C75.396 98.1378 73.8612 100.351 70.7771 101.116C70.4718 101.198 70.1577 101.243 69.8417 101.248Z" fill="#071773"/>
<path d="M77.1645 99.0667C76.2582 99.0351 75.3647 98.8408 74.5262 98.4931L74.3947 98.449C73.9489 98.2798 72.5749 97.7798 66.8525 86.9842C66.767 86.8236 66.7139 86.6475 66.6963 86.4661C66.6787 86.2847 66.6969 86.1016 66.7499 85.9273C66.8029 85.753 66.8896 85.591 67.005 85.4506C67.1205 85.3101 67.2624 85.194 67.4225 85.109C67.5822 85.023 67.7572 84.9696 67.9375 84.9519C68.1177 84.9341 68.2997 84.9525 68.4729 85.0058C68.6461 85.0591 68.8071 85.1463 68.9467 85.2625C69.0863 85.3786 69.2016 85.5214 69.2862 85.6826C71.5883 90.014 74.5628 95.0735 75.469 95.8825C76.8211 96.3752 77.6615 96.6178 78.7578 95.5809C79.854 94.544 79.3863 92.6394 79.379 92.6394C79.3247 92.4656 79.3051 92.2827 79.3214 92.1012C79.3376 91.9198 79.3893 91.7433 79.4735 91.582C79.5577 91.4208 79.6728 91.2778 79.8121 91.1614C79.9514 91.045 80.1122 90.9575 80.2852 90.9039C80.4575 90.8491 80.6388 90.8291 80.8188 90.8449C80.9987 90.8608 81.1738 90.9122 81.334 90.9962C81.4942 91.0802 81.6364 91.1952 81.7524 91.3346C81.8684 91.4739 81.9559 91.6349 82.01 91.8084C82.0538 91.9555 83.0916 95.3897 80.6214 97.6915C79.6901 98.5839 78.4505 99.0771 77.1645 99.0667Z" fill="#071773"/>
<path d="M83.8152 95.1528C82.6542 95.1523 81.5242 94.7759 80.5922 94.0791C79.2183 92.9981 74.9867 85.1221 73.2327 81.7834C73.0646 81.4572 73.0309 81.0775 73.139 80.7266C73.247 80.3756 73.4881 80.0816 73.8101 79.9082C73.9702 79.8224 74.1456 79.7694 74.3262 79.7522C74.5068 79.7351 74.6889 79.754 74.8622 79.808C75.0354 79.862 75.1963 79.95 75.3356 80.0669C75.4749 80.1838 75.5898 80.3273 75.6737 80.4891C78.334 85.5413 81.5204 91.1964 82.3097 91.9024C82.6353 92.126 83.0072 92.272 83.3972 92.3293C83.7872 92.3867 84.1851 92.3538 84.5607 92.2333C85.73 91.7774 86.227 90.1521 86.4316 88.8726C86.4908 88.5088 86.6911 88.1837 86.9885 87.9685C87.2859 87.7534 87.656 87.6659 88.0175 87.7254C88.379 87.7849 88.7021 87.9864 88.9159 88.2857C89.1297 88.585 89.2167 88.9574 89.1576 89.3212C88.5656 92.9319 86.8774 94.3071 85.5619 94.8219C85.0055 95.0416 84.4129 95.1539 83.8152 95.1528Z" fill="#071773"/>
<path d="M89.808 91.1807C88.9656 91.1992 88.1378 90.9575 87.4361 90.4881C86.7344 90.0187 86.1925 89.3442 85.8835 88.5554L79.3644 75.561C79.1988 75.2324 79.1697 74.851 79.2834 74.5007C79.3972 74.1505 79.6445 73.86 79.971 73.6931C80.2989 73.529 80.6779 73.5018 81.0255 73.6175C81.3732 73.7332 81.6614 73.9824 81.8273 74.3109L88.4048 87.3861C88.4367 87.4441 88.4612 87.5059 88.4779 87.57C88.6095 87.9082 89.0918 88.6951 90.5973 88.3053C91.1587 88.1979 91.6788 87.9343 92.0987 87.5443C92.5186 87.1543 92.8213 86.6536 92.9725 86.0992C93.0436 85.7406 93.2501 85.4237 93.5486 85.2152C93.8471 85.0067 94.2144 84.9229 94.5731 84.9814C94.9285 85.0444 95.2449 85.2455 95.4542 85.5414C95.6634 85.8372 95.7485 86.204 95.6912 86.5625C95.4451 87.6377 94.9034 88.6216 94.128 89.4018C93.3526 90.182 92.3748 90.7271 91.3062 90.9748C90.8183 91.111 90.3144 91.1802 89.808 91.1807Z" fill="#071773"/>
<path d="M37.6301 46.7011L33.7408 45.1996C32.712 44.8024 31.558 45.3197 31.1633 46.3549L21.129 72.6719C20.7343 73.7071 21.2483 74.8683 22.2771 75.2655L26.1664 76.767C27.1952 77.1641 28.3491 76.6469 28.7439 75.6117L38.7782 49.2946C39.1729 48.2594 38.6589 47.0983 37.6301 46.7011Z" fill="#071773"/>
<path d="M115.709 76.8598L119.639 75.4702C120.679 75.1027 121.225 73.9567 120.86 72.9106L111.574 46.317C111.208 45.2709 110.07 44.7208 109.03 45.0884L105.1 46.478C104.06 46.8455 103.514 47.9915 103.879 49.0376L113.165 75.6312C113.53 76.6773 114.669 77.2273 115.709 76.8598Z" fill="#071773"/>
</g>
<defs>
<clipPath id="clip0">
<rect width="100" height="56.25" fill="white" transform="translate(21 45)"/>
</clipPath>
</defs>
</svg>
