<svg width="141" height="142" viewBox="0 0 141 142" fill="none" xmlns="http://www.w3.org/2000/svg">
<path d="M139.5 71C139.5 109.394 108.598 140.5 70.5 140.5C32.4023 140.5 1.5 109.394 1.5 71C1.5 32.6062 32.4023 1.5 70.5 1.5C108.598 1.5 139.5 32.6062 139.5 71Z" fill="white" stroke="#071773" stroke-width="3"/>
<g clip-path="url(#clip0)">
<path d="M114.804 45.6961C114.804 45.6961 90.1751 47.7733 71.4958 29C52.8166 47.7733 28.1879 45.6961 28.1879 45.6961C24.6684 114.448 71.4958 118.861 71.4958 118.861C71.4958 118.861 118.323 114.448 114.804 45.6961ZM71.4958 101.483C66.3532 101.483 61.3261 99.9584 57.0497 97.102C52.7734 94.2456 49.4398 90.1855 47.4704 85.4349C45.501 80.6843 44.9841 75.4565 45.9851 70.4123C46.9861 65.368 49.46 60.7337 53.0942 57.0952C56.7284 53.4566 61.3596 50.9771 66.4027 49.97C71.4457 48.9629 76.6742 49.4735 81.4271 51.4372C86.1801 53.4009 90.2441 56.7296 93.1057 61.0025C95.9673 65.2754 97.498 70.3008 97.5042 75.4434C97.5042 82.3441 94.765 88.9626 89.8884 93.8451C85.0118 98.7276 78.3965 101.475 71.4958 101.483V101.483Z" fill="#071773"/>
<path d="M71.496 51.1445C66.6768 51.1445 61.966 52.5743 57.9598 55.2528C53.9536 57.9313 50.832 61.7382 48.9903 66.1916C47.1486 70.645 46.6695 75.5446 47.6137 80.2704C48.5579 84.9962 50.8829 89.3356 54.2944 92.7394C57.7059 96.1433 62.0506 98.4584 66.7784 99.392C71.5063 100.325 76.4049 99.8353 80.8541 97.9836C85.3033 96.1318 89.1032 93.0018 91.7727 88.9895C94.4422 84.9772 95.8613 80.2632 95.8504 75.444C95.8276 68.9969 93.2526 62.8212 88.6887 58.2675C84.1247 53.7138 77.9432 51.1528 71.496 51.1445V51.1445ZM71.496 94.5701C67.7264 94.57 64.0415 93.4529 60.9064 91.3598C57.7714 89.2666 55.3269 86.2913 53.8819 82.8097C52.4368 79.3281 52.056 75.4964 52.7874 71.7984C53.5189 68.1005 55.3297 64.7022 57.9914 62.0329C60.653 59.3636 64.0461 57.5429 67.7419 56.8009C71.4377 56.0588 75.2706 56.4287 78.7563 57.8637C82.2421 59.2988 85.2243 61.7346 87.3265 64.8636C89.4286 67.9926 90.5564 71.6745 90.5673 75.444C90.5714 77.9511 90.0811 80.4344 89.1245 82.7519C88.1679 85.0693 86.7639 87.1754 84.9925 88.9496C83.2212 90.7239 81.1174 92.1315 78.8015 93.0919C76.4856 94.0522 74.0031 94.5466 71.496 94.5465V94.5701Z" fill="#071773"/>
<path d="M86.1619 69.6914H76.7322V71.3061H86.1619V69.6914Z" fill="#071773"/>
<path d="M82.2584 70.4961H80.6437V81.2898H82.2584V70.4961Z" fill="#071773"/>
<path d="M65.8759 81.2926V69.6602H64.2611V80.0306L59.5031 69.6915H56.8302V81.2926H58.4449V71.2435L63.0697 81.2926H65.8759Z" fill="#071773"/>
<path d="M68.9329 79.4112V76.0014H75.0077V74.3945H68.9329V71.3061H75.3134V69.6914H67.3181V81.0259H68.9329V79.4112Z" fill="#071773"/>
</g>
<defs>
<clipPath id="clip0">
<rect width="87" height="89.8532" fill="white" transform="translate(28 29)"/>
</clipPath>
</defs>
</svg>
