<svg width="141" height="142" viewBox="0 0 141 142" fill="none" xmlns="http://www.w3.org/2000/svg">
<path d="M139.5 71C139.5 109.394 108.598 140.5 70.5 140.5C32.4023 140.5 1.5 109.394 1.5 71C1.5 32.6062 32.4023 1.5 70.5 1.5C108.598 1.5 139.5 32.6062 139.5 71Z" fill="white" stroke="#071773" stroke-width="3"/>
<g clip-path="url(#clip0)">
<path d="M47.4744 80.7891C45.3244 80.7908 43.2629 81.6496 41.7426 83.177C40.2223 84.7043 39.3674 86.7754 39.3657 88.9354C39.3674 91.0955 40.2223 93.1666 41.7426 94.6939C43.2629 96.2213 45.3244 97.0801 47.4744 97.0818C49.6245 97.0801 51.686 96.2213 53.2063 94.6939C54.7267 93.1666 55.5815 91.0955 55.5832 88.9354C55.5815 86.7754 54.7267 84.7043 53.2063 83.177C51.686 81.6496 49.6245 80.7908 47.4744 80.7891ZM50.8494 89.3264L48.1443 90.8967L45.452 92.467C45.383 92.5063 45.305 92.5267 45.2257 92.5262C45.1463 92.5256 45.0685 92.5042 45 92.4639C44.9316 92.4237 44.8748 92.3661 44.8355 92.2969C44.7961 92.2277 44.7755 92.1494 44.7758 92.0697V85.7948C44.7747 85.7149 44.7949 85.6362 44.8342 85.5667C44.8735 85.4972 44.9306 85.4396 44.9996 85.3997C45.0685 85.3599 45.1468 85.3392 45.2264 85.34C45.3059 85.3407 45.3838 85.3627 45.452 85.4039L48.1571 86.9742L50.8621 88.5381C50.9304 88.5791 50.9867 88.6375 51.0253 88.7073C51.064 88.7772 51.0837 88.856 51.0824 88.9359C51.0811 89.0159 51.0589 89.094 51.018 89.1626C50.9771 89.2311 50.9189 89.2876 50.8494 89.3264Z" fill="#071773"/>
<path d="M64.7765 72.9102H30.1724C29.0658 72.9102 28.0045 73.3518 27.2221 74.1379C26.4396 74.924 26 75.9902 26 77.1019V100.766C26 101.316 26.1079 101.86 26.3177 102.369C26.5275 102.877 26.8349 103.339 27.2225 103.727C27.61 104.116 28.07 104.424 28.5762 104.634C29.0824 104.844 29.6248 104.952 30.1724 104.951H64.7765C65.3241 104.952 65.8665 104.844 66.3727 104.634C66.8789 104.424 67.3389 104.116 67.7264 103.727C68.114 103.339 68.4214 102.877 68.6311 102.369C68.8409 101.86 68.9489 101.316 68.9489 100.766V77.1019C68.9489 75.9902 68.5093 74.924 67.7268 74.1379C66.9443 73.3518 65.8831 72.9102 64.7765 72.9102ZM47.4744 98.7081C44.8951 98.7047 42.4224 97.6738 40.5986 95.8415C38.7747 94.0092 37.7486 91.525 37.7452 88.9337C37.752 86.3447 38.7796 83.8638 40.6031 82.0342C42.4266 80.2047 44.8973 79.1756 47.4744 79.1722C50.0537 79.1756 52.5264 80.2065 54.3503 82.0388C56.1741 83.8711 57.2003 86.3553 57.2036 88.9465C57.1969 91.5356 56.1693 94.0165 54.3458 95.8461C52.5223 97.6756 50.0515 98.7047 47.4744 98.7081Z" fill="#071773"/>
<path d="M93.5942 88.4029C94.1238 88.4029 94.6317 88.1916 95.0061 87.8153C95.3806 87.4391 95.591 86.9288 95.591 86.3968C95.591 85.8647 95.3806 85.3544 95.0061 84.9782C94.6317 84.602 94.1238 84.3906 93.5942 84.3906C93.0646 84.3906 92.5566 84.602 92.1822 84.9782C91.8077 85.3544 91.5973 85.8647 91.5973 86.3968C91.5973 86.9288 91.8077 87.4391 92.1822 87.8153C92.5566 88.1916 93.0646 88.4029 93.5942 88.4029Z" fill="#071773"/>
<path d="M97.9132 87.1719L93.5494 91.2675L92.0055 89.9984L86.4998 95.3631H105.773L97.9132 87.1719Z" fill="#071773"/>
<path d="M111.834 72.9102H77.2299C76.1233 72.9102 75.062 73.3518 74.2796 74.1379C73.4971 74.924 73.0575 75.9902 73.0575 77.1019V100.766C73.0575 101.316 73.1654 101.86 73.3752 102.369C73.585 102.877 73.8924 103.339 74.28 103.727C74.6675 104.116 75.1275 104.424 75.6336 104.634C76.1398 104.844 76.6823 104.952 77.2299 104.951H111.834C112.382 104.952 112.924 104.844 113.43 104.634C113.936 104.424 114.396 104.116 114.784 103.727C115.171 103.339 115.479 102.877 115.689 102.369C115.898 101.86 116.006 101.316 116.006 100.766V77.1019C116.006 75.9902 115.567 74.924 114.784 74.1379C114.002 73.3518 112.941 72.9102 111.834 72.9102ZM107.445 97.6506H81.6128V80.2105H107.445V97.6506Z" fill="#071773"/>
<path d="M55.7044 44.4141H39.1425V56.169H55.7044V44.4141Z" fill="#071773"/>
<path d="M51.3405 61.6116C51.3405 61.7816 51.2734 61.9446 51.1537 62.0648C51.0341 62.185 50.8718 62.2526 50.7026 62.2526H44.2462C44.077 62.2526 43.9147 62.185 43.7951 62.0648C43.6754 61.9446 43.6082 61.7816 43.6082 61.6116V61.1758H42.5875L42.0197 62.7974H52.961L52.4443 61.1758H51.3405V61.6116Z" fill="#071773"/>
<path d="M50.0711 59.2656H44.8843V60.9769H50.0711V59.2656Z" fill="#071773"/>
<path d="M38.1727 57.9839H56.7762V43.2422H38.1727V57.9839ZM38.6321 44.3574C38.6383 44.2428 38.6869 44.1346 38.7683 44.054C38.8497 43.9734 38.9581 43.9262 39.0723 43.9216H55.7427C55.8634 43.9233 55.9787 43.9726 56.0634 44.059C56.1482 44.1454 56.1957 44.2618 56.1957 44.3831V56.4456C56.1957 56.4793 56.1891 56.5126 56.1763 56.5437C56.1634 56.5748 56.1446 56.6031 56.1209 56.6269C56.0972 56.6507 56.0691 56.6696 56.0381 56.6825C56.0072 56.6954 55.974 56.702 55.9405 56.702H38.8873C38.8538 56.702 38.8206 56.6954 38.7896 56.6825C38.7586 56.6696 38.7305 56.6507 38.7068 56.6269C38.6831 56.6031 38.6643 56.5748 38.6515 56.5437C38.6387 56.5126 38.6321 56.4793 38.6321 56.4456V44.3574Z" fill="#071773"/>
<path d="M64.7765 37H30.1724C29.0658 37 28.0045 37.4416 27.2221 38.2277C26.4396 39.0139 26 40.08 26 41.1918V64.849C26 65.9607 26.4396 67.0269 27.2221 67.813C28.0045 68.5991 29.0658 69.0407 30.1724 69.0407H64.7765C65.8831 69.0407 66.9443 68.5991 67.7268 67.813C68.5093 67.0269 68.9489 65.9607 68.9489 64.849V41.1918C68.9489 40.08 68.5093 39.0139 67.7268 38.2277C66.9443 37.4416 65.8831 37 64.7765 37ZM58.0522 58.2088C58.0522 58.4893 57.9413 58.7583 57.7438 58.9566C57.5464 59.1549 57.2787 59.2664 56.9995 59.2664H51.3406V59.9073H52.91C53.0446 59.9074 53.1756 59.9502 53.2845 60.0297C53.3933 60.1091 53.4744 60.2211 53.5161 60.3496L54.4348 63.253C54.4645 63.349 54.4713 63.4506 54.4547 63.5497C54.4381 63.6488 54.3985 63.7426 54.3391 63.8235C54.2804 63.9042 54.2036 63.9701 54.115 64.0157C54.0263 64.0614 53.9283 64.0855 53.8287 64.0863H41.1202C41.0189 64.0858 40.9193 64.0611 40.8294 64.0143C40.7396 63.9675 40.6621 63.8999 40.6034 63.817C40.5441 63.7336 40.5057 63.6371 40.4913 63.5356C40.4768 63.4341 40.4868 63.3306 40.5205 63.2338L41.5348 60.3303C41.5798 60.2054 41.6622 60.0976 41.7708 60.0218C41.8794 59.9461 42.0087 59.906 42.1409 59.9073H43.6083V59.2664H37.9494C37.6702 59.2664 37.4025 59.1549 37.205 58.9566C37.0076 58.7583 36.8967 58.4893 36.8967 58.2088V43.012C36.8984 42.7327 37.01 42.4653 37.2073 42.2684C37.4045 42.0714 37.6713 41.9609 37.9494 41.9609H56.9995C57.2776 41.9609 57.5444 42.0714 57.7416 42.2684C57.9388 42.4653 58.0505 42.7327 58.0522 43.012V58.2088Z" fill="#071773"/>
<path d="M84.9813 47.865L85.0834 49.7558L92.2607 47.8073L92.0055 45.9102L84.9813 47.865Z" fill="#071773"/>
<path d="M111.834 37H77.2299C76.1233 37 75.062 37.4416 74.2796 38.2277C73.4971 39.0139 73.0575 40.08 73.0575 41.1918V64.849C73.0575 65.9607 73.4971 67.0269 74.2796 67.813C75.062 68.5991 76.1233 69.0407 77.2299 69.0407H111.834C112.941 69.0407 114.002 68.5991 114.784 67.813C115.567 67.0269 116.006 65.9607 116.006 64.849V41.1918C116.006 40.08 115.567 39.0139 114.784 38.2277C114.002 37.4416 112.941 37 111.834 37ZM92.8987 56.5167C91.5653 57.2923 90.0724 57.2025 89.5684 56.3244C89.0644 55.4463 89.7343 54.1068 91.0677 53.3312C91.6345 52.9898 92.2825 52.8082 92.9433 52.8057L92.6307 50.5047L85.2365 52.5172L85.4024 55.6066C85.6841 55.7103 85.9225 55.9069 86.0787 56.1642C86.5827 57.0423 85.9128 58.3883 84.5794 59.1638C83.246 59.9393 81.7468 59.8496 81.2428 58.9715C80.7388 58.0934 81.4087 56.7475 82.7484 55.9719C83.2426 55.6792 83.7969 55.5038 84.3689 55.4592L83.9414 47.5051C83.9359 47.3901 83.9695 47.2766 84.0368 47.1834C84.1041 47.0902 84.2009 47.0228 84.3114 46.9923L92.2799 44.7746C92.3495 44.7548 92.4226 44.7502 92.4941 44.7613C92.5657 44.7723 92.634 44.7987 92.6945 44.8387C92.7546 44.8781 92.8055 44.93 92.8441 44.9908C92.8826 45.0516 92.9077 45.1199 92.9178 45.1912L93.996 53.1133C94.1584 53.2166 94.294 53.3572 94.3916 53.5235C94.9083 54.4016 94.2384 55.7412 92.8987 56.5167ZM105.173 51.3892C104.232 51.0295 103.193 51.0295 102.252 51.3892V57.1577C102.314 57.2262 102.371 57.299 102.424 57.3756C102.979 58.3498 102.239 59.8304 100.759 60.6828C99.2785 61.5353 97.6389 61.4456 97.0775 60.4777C96.516 59.5099 97.2625 58.0229 98.7362 57.1641C99.4254 56.7421 100.228 56.5451 101.033 56.6V49.3574C101.041 49.193 101.112 49.0381 101.231 48.9247C101.349 48.8114 101.507 48.7483 101.671 48.7485C101.822 48.7518 101.966 48.8085 102.079 48.9087C102.897 48.675 103.767 48.7132 104.561 49.0177C105.652 49.5881 105.875 51.0623 108.019 50.9405C107.974 50.9277 107.336 52.1519 105.173 51.402V51.3892Z" fill="#071773"/>
</g>
<defs>
<clipPath id="clip0">
<rect width="90" height="67.9592" fill="white" transform="translate(26 37)"/>
</clipPath>
</defs>
</svg>
