<svg width="59" height="59" viewBox="0 0 59 59" fill="none" xmlns="http://www.w3.org/2000/svg">
<g clip-path="url(#clip0)" filter="url(#filter0_d)">
<path d="M32.3363 1H4.20376C3.35407 1 2.53918 1.33753 1.93836 1.93835C1.33754 2.53917 1.00001 3.35407 1.00001 4.20375V24.265C0.998342 25.5624 1.3269 26.8389 1.95473 27.9743C2.58256 29.1097 3.48902 30.0666 4.58876 30.755L14.5163 37.0113C15.638 37.7184 16.9371 38.0937 18.2631 38.0937C19.5892 38.0937 20.8882 37.7184 22.01 37.0113L31.9513 30.755C33.0492 30.0647 33.9543 29.1074 34.5818 27.9724C35.2094 26.8374 35.5391 25.5619 35.54 24.265V4.20375C35.54 3.35407 35.2025 2.53917 34.6017 1.93835C34.0008 1.33753 33.1859 1 32.3363 1ZM6.74751 14.585C6.70557 14.9223 6.53135 15.2292 6.26317 15.438C5.995 15.6469 5.65483 15.7407 5.31751 15.6988C4.98018 15.6568 4.67334 15.4826 4.46447 15.2144C4.2556 14.9462 4.16182 14.6061 4.20376 14.2687C4.41878 12.7277 5.18369 11.3165 6.35746 10.2951C7.53123 9.27374 9.0347 8.71119 10.5906 8.71119C12.1466 8.71119 13.65 9.27374 14.8238 10.2951C15.9976 11.3165 16.7625 12.7277 16.9775 14.2687C17.0194 14.6061 16.9257 14.9462 16.7168 15.2144C16.5079 15.4826 16.2011 15.6568 15.8638 15.6988C15.5264 15.7407 15.1863 15.6469 14.9181 15.438C14.6499 15.2292 14.4757 14.9223 14.4338 14.585C14.309 13.6542 13.8506 12.8003 13.1438 12.1819C12.437 11.5635 11.5298 11.2227 10.5906 11.2227C9.65149 11.2227 8.74426 11.5635 8.03745 12.1819C7.33064 12.8003 6.87228 13.6542 6.74751 14.585ZM28.4175 23.8525C27.539 25.8087 26.1138 27.4693 24.3135 28.6344C22.5131 29.7994 20.4144 30.4193 18.27 30.4193C16.1256 30.4193 14.0269 29.7994 12.2265 28.6344C10.4262 27.4693 9.001 25.8087 8.12251 23.8525C8.01224 23.54 8.02757 23.197 8.16525 22.8956C8.30292 22.5942 8.55221 22.3581 8.86058 22.2368C9.16895 22.1156 9.51234 22.1189 9.81839 22.2458C10.1244 22.3728 10.3693 22.6136 10.5013 22.9175C11.1908 24.3944 12.2874 25.6439 13.6623 26.5193C15.0371 27.3947 16.6332 27.8597 18.2631 27.8597C19.893 27.8597 21.4891 27.3947 22.864 26.5193C24.2389 25.6439 25.3354 24.3944 26.025 22.9175C26.149 22.6002 26.3939 22.3452 26.706 22.2086C27.018 22.0719 27.3715 22.0648 27.6888 22.1888C28.006 22.3127 28.261 22.5577 28.3977 22.8697C28.5344 23.1817 28.5415 23.5352 28.4175 23.8525ZM29.7925 14.585C29.6569 13.6608 29.1933 12.8162 28.4864 12.2056C27.7796 11.5949 26.8766 11.2588 25.9425 11.2588C25.0084 11.2588 24.1055 11.5949 23.3986 12.2056C22.6917 12.8162 22.2282 13.6608 22.0925 14.585C22.0278 14.9003 21.8465 15.1795 21.5849 15.3671C21.3233 15.5546 21.0007 15.6366 20.6813 15.5967C20.3619 15.5567 20.0693 15.3978 19.862 15.1517C19.6546 14.9056 19.5476 14.5903 19.5625 14.2687C19.7662 12.7208 20.5257 11.2998 21.6995 10.2703C22.8732 9.2409 24.3813 8.67328 25.9425 8.67328C27.5038 8.67328 29.0118 9.2409 30.1855 10.2703C31.3593 11.2998 32.1188 12.7208 32.3225 14.2687C32.3374 14.5903 32.2304 14.9056 32.0231 15.1517C31.8157 15.3978 31.5231 15.5567 31.2037 15.5967C30.8844 15.6366 30.5617 15.5546 30.3001 15.3671C30.0385 15.1795 29.8573 14.9003 29.7925 14.585Z" fill="#368DC9"/>
<path d="M52.7962 18.875H38.4138C38.371 18.875 38.3288 18.8836 38.2895 18.9003C38.2502 18.9171 38.2147 18.9416 38.1851 18.9724C38.1556 19.0033 38.1326 19.0398 38.1175 19.0798C38.1025 19.1197 38.0956 19.1623 38.0975 19.205V24.2375C38.0966 25.968 37.6572 27.6701 36.8205 29.1849C35.9837 30.6997 34.7769 31.9778 33.3125 32.9C22.4913 39.7062 22.89 39.5413 21.6663 39.995C21.6059 40.0194 21.554 40.0612 21.5173 40.115C21.4806 40.1689 21.4607 40.2324 21.46 40.2975V42.14C21.4624 43.4385 21.7926 44.7154 22.42 45.8523C23.0473 46.9892 23.9515 47.9494 25.0487 48.6437L34.99 54.8863C36.1118 55.5934 37.4108 55.9687 38.7369 55.9687C40.063 55.9687 41.362 55.5934 42.4837 54.8863L52.4113 48.6437C53.5103 47.9513 54.4159 46.9915 55.0435 45.8542C55.671 44.7169 56.0001 43.439 56 42.14V22.1063C56.0036 21.6832 55.9235 21.2637 55.7641 20.8718C55.6047 20.4799 55.3693 20.1235 55.0714 19.8231C54.7736 19.5226 54.4192 19.2842 54.0287 19.1215C53.6382 18.9588 53.2193 18.875 52.7962 18.875ZM46.4987 46.8425C45.8092 45.3656 44.7126 44.1161 43.3377 43.2407C41.9629 42.3653 40.3668 41.9003 38.7369 41.9003C37.107 41.9003 35.5109 42.3653 34.136 43.2407C32.7611 44.1161 31.6646 45.3656 30.975 46.8425C30.8528 47.1598 30.6096 47.4155 30.2989 47.5535C29.9882 47.6914 29.6354 47.7003 29.3181 47.5781C29.0009 47.456 28.7451 47.2128 28.6072 46.902C28.4692 46.5913 28.4603 46.2385 28.5825 45.9212C29.461 43.965 30.8862 42.3044 32.6865 41.1394C34.4869 39.9743 36.5856 39.3545 38.73 39.3545C40.8744 39.3545 42.9731 39.9743 44.7735 41.1394C46.5738 42.3044 47.999 43.965 48.8775 45.9212C49.0033 46.2367 48.9987 46.5892 48.8646 46.9012C48.7305 47.2132 48.4779 47.4592 48.1625 47.585C47.8471 47.7108 47.4946 47.7062 47.1825 47.5721C46.8705 47.438 46.6246 47.1854 46.4987 46.87V46.8425ZM52.7962 27.9913C52.5812 29.5323 51.8163 30.9435 50.6425 31.9649C49.4688 32.9863 47.9653 33.5488 46.4094 33.5488C44.8535 33.5488 43.35 32.9863 42.1762 31.9649C41.0024 30.9435 40.2375 29.5323 40.0225 27.9913C39.9806 27.6539 40.0743 27.3138 40.2832 27.0456C40.4921 26.7774 40.7989 26.6032 41.1363 26.5612C41.4736 26.5193 41.8137 26.6131 42.0819 26.822C42.3501 27.0308 42.5243 27.3377 42.5663 27.675C42.691 28.6058 43.1494 29.4597 43.8562 30.0781C44.563 30.6965 45.4702 31.0373 46.4094 31.0373C47.3485 31.0373 48.2557 30.6965 48.9626 30.0781C49.6694 29.4597 50.1277 28.6058 50.2525 27.675C50.2981 27.3377 50.4758 27.0323 50.7466 26.826C51.0173 26.6197 51.3589 26.5294 51.6963 26.575C52.0336 26.6206 52.339 26.7983 52.5453 27.0691C52.7516 27.3398 52.8418 27.6814 52.7962 28.0187V27.9913Z" fill="#368DC9"/>
</g>
<defs>
<filter id="filter0_d" x="0" y="0" width="59" height="59" filterUnits="userSpaceOnUse" color-interpolation-filters="sRGB">
<feFlood flood-opacity="0" result="BackgroundImageFix"/>
<feColorMatrix in="SourceAlpha" type="matrix" values="0 0 0 0 0 0 0 0 0 0 0 0 0 0 0 0 0 0 127 0" result="hardAlpha"/>
<feOffset dx="1" dy="1"/>
<feGaussianBlur stdDeviation="1"/>
<feComposite in2="hardAlpha" operator="out"/>
<feColorMatrix type="matrix" values="0 0 0 0 0 0 0 0 0 0 0 0 0 0 0 0 0 0 0.25 0"/>
<feBlend mode="normal" in2="BackgroundImageFix" result="effect1_dropShadow"/>
<feBlend mode="normal" in="SourceGraphic" in2="effect1_dropShadow" result="shape"/>
</filter>
<clipPath id="clip0">
<rect width="55" height="55" fill="white" transform="translate(1 1)"/>
</clipPath>
</defs>
</svg>
