<svg width="53" height="52" viewBox="0 0 53 52" fill="none" xmlns="http://www.w3.org/2000/svg">
<g clip-path="url(#clip0)" filter="url(#filter0_d)">
<path d="M47.9246 2.50848C47.274 1.94326 46.5098 1.52141 45.6825 1.27081C44.8552 1.02021 43.9837 0.946566 43.1256 1.05475L18.6187 4.03076C17.1373 4.21754 15.7752 4.93324 14.7875 6.04394C13.7998 7.15464 13.2541 8.58419 13.2526 10.065V33.9279C11.6989 33.0404 9.89326 32.686 8.11574 32.9197C6.33822 33.1535 4.68815 33.9623 3.42139 35.2207C2.15463 36.4791 1.34197 38.1168 1.10945 39.8798C0.87692 41.6429 1.23751 43.4328 2.13531 44.9719C3.0331 46.511 4.41794 47.7134 6.07506 48.3926C7.73217 49.0717 9.56897 49.1898 11.3006 48.7283C13.0323 48.2669 14.562 47.2518 15.6526 45.8404C16.7431 44.429 17.3336 42.7002 17.3325 40.9222V18.3759L45.9055 14.9062V29.3885C44.6722 28.6567 43.2628 28.2683 41.8256 28.2639C40.209 28.2639 38.6287 28.7393 37.2846 29.6299C35.9404 30.5205 34.8928 31.7863 34.2742 33.2673C33.6555 34.7484 33.4937 36.378 33.809 37.9503C34.1244 39.5225 34.9029 40.9667 36.046 42.1002C37.1891 43.2338 38.6455 44.0057 40.231 44.3184C41.8165 44.6312 43.46 44.4707 44.9535 43.8572C46.447 43.2438 47.7235 42.2049 48.6217 40.872C49.5198 39.5391 49.9991 37.9721 49.9991 36.369V7.06162C49.9977 6.20037 49.8121 5.34921 49.4545 4.56434C49.0969 3.77948 48.5755 3.07877 47.9246 2.50848Z" fill="#368DC9"/>
</g>
<defs>
<filter id="filter0_d" x="0" y="0" width="53" height="52" filterUnits="userSpaceOnUse" color-interpolation-filters="sRGB">
<feFlood flood-opacity="0" result="BackgroundImageFix"/>
<feColorMatrix in="SourceAlpha" type="matrix" values="0 0 0 0 0 0 0 0 0 0 0 0 0 0 0 0 0 0 127 0" result="hardAlpha"/>
<feOffset dx="1" dy="1"/>
<feGaussianBlur stdDeviation="1"/>
<feComposite in2="hardAlpha" operator="out"/>
<feColorMatrix type="matrix" values="0 0 0 0 0 0 0 0 0 0 0 0 0 0 0 0 0 0 0.25 0"/>
<feBlend mode="normal" in2="BackgroundImageFix" result="effect1_dropShadow"/>
<feBlend mode="normal" in="SourceGraphic" in2="effect1_dropShadow" result="shape"/>
</filter>
<clipPath id="clip0">
<rect width="49" height="48" fill="white" transform="translate(1 1)"/>
</clipPath>
</defs>
</svg>
